<?xml version="1.0" standalone="no"?>
<!DOCTYPE svg PUBLIC "-//W3C//DTD SVG 20010904//EN"
 "http://www.w3.org/TR/2001/REC-SVG-20010904/DTD/svg10.dtd">
<svg version="1.0" xmlns="http://www.w3.org/2000/svg"
 width="512.000000pt" height="512.000000pt" viewBox="0 0 512.000000 512.000000"
 preserveAspectRatio="xMidYMid meet">
<metadata>
Created by potrace 1.11, written by Peter Selinger 2001-2013
</metadata>
<g transform="translate(0.000000,512.000000) scale(0.100000,-0.100000)"
fill="#000000" stroke="none">
<path d="M727 5112 c15 -10 19 -58 8 -92 -5 -14 -10 -34 -11 -45 -2 -11 -6
-35 -10 -52 -5 -25 1 -48 24 -96 19 -38 29 -72 25 -85 -5 -19 -3 -20 23 -10
23 8 29 17 29 41 0 17 -5 32 -11 34 -18 6 -4 49 16 50 19 2 36 -29 26 -46 -3
-5 1 -12 9 -15 8 -3 14 -11 13 -18 -2 -7 3 -13 10 -12 43 3 44 4 39 27 -2 12
-8 30 -12 40 -5 13 -2 17 15 17 14 0 21 -6 19 -17 -3 -34 1 -53 12 -53 5 0 8
4 4 9 -3 5 0 13 6 17 6 3 15 1 19 -5 8 -15 100 5 100 21 0 6 6 8 13 5 8 -3 12
9 12 39 0 24 -3 44 -7 44 -15 0 -8 41 7 47 22 8 30 -4 15 -22 -10 -12 -10 -15
0 -15 8 0 11 -9 8 -25 -5 -24 -4 -24 49 -20 41 4 52 2 47 -8 -6 -9 -4 -9 8 1
8 7 22 10 31 6 11 -4 15 0 13 12 -2 10 -11 21 -22 25 -17 7 -17 8 -1 8 18 1
25 21 7 21 -5 0 -10 7 -10 16 0 13 3 14 13 5 10 -7 31 -8 73 -1 32 6 66 9 74
9 21 -1 -49 -19 -82 -21 -32 -1 -47 -33 -27 -54 12 -11 25 -10 84 5 122 31
295 104 281 119 -4 3 -12 0 -18 -6 -16 -16 -39 -15 -32 1 3 8 0 25 -5 39 -7
18 -6 29 2 38 10 10 7 12 -10 7 -16 -3 -23 -1 -23 9 0 11 -26 14 -134 14 -120
0 -135 -2 -139 -17 -4 -17 -5 -17 -6 0 -1 16 -21 17 -293 17 -161 -1 -287 -4
-281 -8z m89 -48 c-4 -12 -10 -14 -17 -7 -5 5 -7 17 -3 27 4 12 10 14 17 7 5
-5 7 -17 3 -27z m321 -26 c-3 -8 -6 -5 -6 6 -1 11 2 17 5 13 3 -3 4 -12 1 -19z
m55 -20 c-6 -6 -15 -8 -19 -4 -4 4 -1 11 7 16 19 12 27 3 12 -12z m-362 -25
c0 -18 -17 -16 -24 3 -8 22 4 40 15 23 5 -8 9 -20 9 -26z m166 22 c4 -8 16
-15 28 -16 13 -1 8 -4 -13 -9 -19 -5 -44 -4 -55 0 -20 8 -20 9 3 9 16 1 21 5
17 16 -3 8 -1 15 5 15 5 0 12 -7 15 -15z m234 -10 c-7 -9 -15 -13 -17 -11 -7
7 7 26 19 26 6 0 6 -6 -2 -15z m347 -11 c-3 -3 -12 -4 -19 -1 -8 3 -5 6 6 6
11 1 17 -2 13 -5z m-52 -20 c-9 -9 -19 -13 -23 -10 -3 4 0 11 8 16 24 15 33
11 15 -6z m-61 -9 c3 -9 0 -15 -9 -15 -16 0 -27 14 -18 24 10 10 21 7 27 -9z
m-609 -15 c11 -17 -5 -32 -21 -19 -7 6 -11 15 -8 20 7 12 21 11 29 -1z m135 0
c0 -5 -2 -10 -4 -10 -3 0 -8 5 -11 10 -3 6 -1 10 4 10 6 0 11 -4 11 -10z m194
2 c3 -5 -1 -9 -9 -9 -8 0 -12 4 -9 9 3 4 7 8 9 8 2 0 6 -4 9 -8z m41 -22 c3
-5 2 -10 -4 -10 -5 0 -13 5 -16 10 -3 6 -2 10 4 10 5 0 13 -4 16 -10z m-61
-32 c-3 -4 -9 -8 -15 -8 -5 0 -9 4 -9 8 0 5 7 9 15 9 8 0 12 -4 9 -9z m-344
-18 c0 -5 -4 -10 -10 -10 -5 0 -10 5 -10 10 0 6 5 10 10 10 6 0 10 -4 10 -10z
m69 -16 c3 -16 1 -17 -13 -5 -19 16 -21 34 -3 29 6 -3 14 -13 16 -24z"/>
<path d="M1649 5107 c6 -8 8 -16 6 -19 -10 -10 14 -58 29 -58 7 0 36 20 62 45
l49 45 -79 0 c-64 0 -76 -2 -67 -13z"/>
<path d="M1800 5050 c-74 -69 -85 -91 -55 -115 7 -5 15 -20 18 -33 4 -18 0
-25 -19 -33 -34 -12 -36 -12 -33 9 3 32 -1 42 -17 42 -10 0 -14 6 -10 15 7 19
-5 19 -41 0 -75 -40 -209 -88 -293 -106 -27 -6 -50 -15 -50 -20 0 -4 -7 -6
-15 -3 -8 4 -15 2 -15 -2 0 -5 -19 -10 -42 -12 -51 -3 -62 -10 -48 -27 8 -9 6
-14 -5 -19 -12 -4 -14 -10 -5 -25 17 -33 12 -72 -10 -78 -11 -3 -20 -9 -20
-14 0 -4 -10 -24 -22 -45 l-22 -37 -18 23 c-22 27 -23 40 -4 40 15 0 66 42 66
53 0 4 -7 4 -15 1 -8 -4 -15 -3 -15 0 0 4 9 10 19 14 18 7 18 8 -1 49 -16 34
-23 41 -37 34 -9 -5 -35 -12 -59 -16 -24 -4 -52 -17 -64 -28 -12 -13 -22 -17
-25 -11 -2 6 -15 9 -29 6 -28 -5 -41 -29 -71 -127 l-18 -60 -3 59 c-2 41 1 62
10 67 7 5 9 9 3 9 -5 0 -4 5 3 12 24 24 11 26 -37 6 -51 -22 -71 -48 -71 -93
0 -13 -5 -36 -11 -52 -23 -57 -21 -83 10 -114 30 -30 76 -39 84 -16 3 9 9 9
24 1 17 -11 19 -9 15 17 -5 35 17 121 29 114 4 -3 3 -19 -3 -36 -14 -42 6 -64
23 -26 7 15 16 24 21 21 5 -3 2 -14 -7 -24 -22 -24 -7 -54 35 -68 34 -12 44
-48 10 -37 -11 4 -20 2 -20 -4 0 -6 5 -11 10 -11 6 0 10 -7 10 -15 0 -19 -9
-19 -32 2 -10 9 -21 14 -24 10 -9 -9 22 -48 31 -39 4 4 4 -3 1 -15 -4 -13 -3
-23 2 -23 6 0 13 -7 16 -16 4 -11 2 -15 -7 -11 -11 4 -13 -7 -13 -46 1 -36 5
-51 14 -50 6 2 12 -3 12 -11 0 -8 7 -16 15 -20 9 -3 15 0 15 9 0 8 5 15 10 15
18 0 -20 48 -43 54 -21 6 -21 7 -5 20 19 14 25 56 9 56 -6 0 -9 9 -8 20 3 40
47 14 47 -27 0 -13 7 -26 15 -29 11 -5 13 -10 5 -19 -8 -9 1 -17 35 -30 25 -9
64 -19 86 -22 22 -3 42 -10 45 -14 8 -14 41 -10 58 7 9 8 16 11 16 5 0 -19 28
-12 44 11 21 30 22 55 1 38 -12 -10 -15 -7 -21 14 -4 16 -13 26 -24 26 -11 0
-22 5 -26 11 -7 11 27 9 86 -5 14 -3 19 -4 13 0 -20 9 -15 24 6 24 11 0 23 5
26 10 7 12 25 4 25 -11 0 -5 -7 -9 -15 -9 -8 0 -15 -4 -15 -10 0 -5 7 -10 15
-10 8 0 15 5 15 10 0 6 7 10 15 10 8 0 15 -4 15 -10 0 -5 6 -10 14 -10 7 0 19
-7 27 -16 12 -15 70 -18 94 -5 6 3 42 6 80 8 39 1 75 2 81 2 19 2 76 59 69 70
-3 7 -30 10 -62 9 -50 -2 -58 0 -81 27 -21 25 -33 30 -73 31 -47 1 -79 16 -79
36 0 6 10 7 23 4 12 -4 33 -9 47 -12 14 -2 39 -7 55 -10 17 -3 37 -15 45 -25
13 -16 19 -18 46 -8 60 23 132 -36 108 -88 -4 -10 -7 -21 -6 -25 1 -4 -5 -5
-13 -2 -8 3 -29 -6 -47 -21 -30 -26 -35 -26 -109 -20 -52 5 -79 3 -84 -4 -3
-6 -11 -9 -16 -6 -5 4 -27 7 -50 7 -23 0 -43 6 -45 13 -7 17 -51 16 -65 -1 -8
-10 -8 -14 0 -14 6 0 11 -7 11 -15 0 -16 -69 -55 -98 -55 -10 0 -22 -4 -28 -9
-15 -14 -72 -21 -76 -10 -5 16 -86 28 -141 22 -38 -5 -45 -8 -36 -19 9 -11 6
-14 -14 -14 -13 0 -30 7 -37 15 -16 19 -30 19 -30 0 0 -21 42 -35 86 -29 21 2
39 6 41 8 2 2 23 -1 45 -6 26 -5 43 -5 47 1 8 13 105 -20 134 -46 75 -67 103
-75 281 -73 104 1 282 106 302 178 3 12 9 22 13 22 4 0 16 6 27 14 16 12 19
27 19 95 0 50 5 85 13 93 6 6 12 20 12 30 0 10 19 38 43 63 34 35 51 45 75 45
27 0 32 4 32 25 0 14 5 25 10 25 9 0 14 -14 11 -32 -2 -12 57 -10 64 2 3 6
-19 40 -49 76 -31 36 -56 58 -56 50 0 -28 -18 -17 -31 18 -7 19 -16 33 -19 31
-4 -3 -5 7 -2 21 2 14 11 28 18 31 22 8 16 26 -6 20 -11 -3 -20 -1 -20 4 0 5
5 9 10 9 6 0 10 9 10 20 0 11 5 20 10 20 6 0 8 10 4 24 -4 18 -1 27 15 35 16
9 19 18 14 41 -3 19 -1 30 6 30 6 0 11 -6 12 -12 0 -7 4 -4 8 7 11 27 3 45
-20 45 -10 0 -19 5 -19 10 0 6 -8 10 -17 10 -15 0 -15 -2 2 -14 18 -13 18 -14
-4 -26 -24 -12 -54 1 -32 14 6 4 11 16 11 26 0 23 12 31 50 32 34 1 30 18 -5
18 -12 0 -25 6 -28 14 -6 14 19 14 85 1 19 -3 45 21 34 32 -4 4 -26 2 -49 -4
-25 -7 -43 -8 -45 -2 -6 14 -56 11 -78 -6 -10 -8 -28 -15 -39 -15 -12 0 -16
-3 -9 -8 13 -8 1 -52 -14 -52 -17 0 -21 12 -10 30 9 14 8 22 -3 36 -12 15 -12
16 0 9 10 -5 12 -4 7 3 -16 26 -54 9 -126 -58z m207 35 c-9 -8 -21 -15 -27
-15 -7 0 -2 9 11 19 28 22 39 20 16 -4z m-160 -37 c-3 -8 -6 -5 -6 6 -1 11 2
17 5 13 3 -3 4 -12 1 -19z m13 -39 c0 -5 -4 -9 -10 -9 -5 0 -10 7 -10 16 0 8
5 12 10 9 6 -3 10 -10 10 -16z m87 -30 c5 -25 8 -27 25 -18 14 8 23 8 31 0 7
-7 2 -14 -19 -21 -27 -11 -28 -12 -10 -22 15 -8 22 -7 31 5 15 20 25 13 18
-14 -6 -22 -8 -23 -34 -9 -15 9 -19 7 -19 -5 0 -13 -7 -15 -35 -9 -28 5 -35 3
-35 -9 0 -29 11 -45 29 -40 11 3 21 -2 25 -13 7 -19 -1 -33 -12 -19 -4 6 -16
15 -27 21 -11 6 -21 23 -23 38 -2 14 -8 26 -13 26 -5 0 -9 7 -9 15 0 9 -6 15
-12 13 -7 -1 -26 5 -43 14 -26 15 -28 17 -11 24 10 4 21 2 25 -3 10 -16 54
-23 68 -11 10 8 13 6 13 -6 0 -10 5 -14 10 -11 15 9 12 36 -7 57 -20 23 -33
23 -34 1 0 -11 -2 -13 -6 -5 -10 25 4 39 37 34 25 -3 32 -10 37 -33z m110 -41
c-3 -8 -6 -5 -6 6 -1 11 2 17 5 13 3 -3 4 -12 1 -19z m-367 -38 c0 -5 -5 -10
-11 -10 -5 0 -7 5 -4 10 3 6 8 10 11 10 2 0 4 -4 4 -10z m100 -81 c0 -6 -4 -7
-10 -4 -5 3 -10 11 -10 16 0 6 5 7 10 4 6 -3 10 -11 10 -16z m-370 -9 c0 -11
-4 -20 -9 -20 -5 0 -11 9 -14 20 -3 13 0 20 9 20 8 0 14 -9 14 -20z m292 -5
c4 -20 3 -23 -8 -14 -16 13 -19 39 -5 39 5 0 11 -11 13 -25z m188 5 c26 -26
25 -42 -2 -67 -36 -31 -98 -66 -106 -58 -4 3 1 11 11 16 9 6 17 19 17 29 0 15
7 20 25 20 14 0 25 4 25 9 0 5 3 16 6 25 4 12 0 16 -15 16 -12 0 -21 -4 -21
-10 0 -5 -7 -10 -16 -10 -8 0 -12 -4 -9 -10 3 -5 1 -10 -4 -10 -6 0 -11 14
-11 31 0 25 3 29 19 24 11 -3 22 -1 26 5 10 16 33 12 55 -10z m-533 -26 c-3
-3 -12 -4 -19 -1 -8 3 -5 6 6 6 11 1 17 -2 13 -5z m-127 -35 c-7 -11 -14 -19
-16 -16 -7 7 7 37 17 37 6 0 5 -9 -1 -21z m90 1 c0 -5 -4 -10 -9 -10 -6 0 -13
5 -16 10 -3 6 1 10 9 10 9 0 16 -4 16 -10z m390 0 c0 -5 -4 -10 -10 -10 -5 0
-10 5 -10 10 0 6 5 10 10 10 6 0 10 -4 10 -10z m-340 -10 c0 -5 7 -10 15 -10
18 0 18 -1 5 -36 -7 -19 -7 -29 -1 -34 6 -3 3 -13 -9 -23 -11 -9 -20 -12 -20
-7 0 6 -10 8 -23 5 -17 -5 -24 -2 -24 9 0 9 5 16 11 16 15 0 46 36 46 53 0 7
-5 18 -12 25 -9 9 -9 12 0 12 7 0 12 -4 12 -10z m101 -22 c9 -4 22 -1 28 5 8
8 14 8 22 0 8 -8 0 -13 -30 -18 -48 -8 -61 -2 -61 28 1 19 2 20 13 6 7 -8 19
-18 28 -21z m324 22 c3 -5 1 -10 -4 -10 -6 0 -11 5 -11 10 0 6 2 10 4 10 3 0
8 -4 11 -10z m-115 -4 c0 -3 -4 -8 -10 -11 -5 -3 -10 -1 -10 4 0 6 5 11 10 11
6 0 10 -2 10 -4z m324 -21 c-4 -8 -8 -15 -10 -15 -2 0 -4 7 -4 15 0 8 4 15 10
15 5 0 7 -7 4 -15z m-1064 -58 c0 -3 -9 -7 -20 -10 -25 -6 -36 9 -20 28 10 12
14 12 26 0 8 -7 14 -16 14 -18z m915 14 c-17 -7 -13 -10 25 -21 25 -6 50 -15
55 -18 6 -3 4 2 -3 10 -8 9 -23 19 -35 21 -21 3 -21 4 -3 12 13 6 21 5 24 -3
2 -7 11 -12 20 -12 10 0 25 -12 35 -26 18 -24 18 -27 1 -74 -14 -39 -20 -47
-31 -38 -21 17 -26 2 -7 -21 16 -19 18 -19 30 -3 8 9 14 12 14 5 0 -13 -27
-43 -40 -43 -4 0 -10 -8 -12 -18 -7 -25 -68 -69 -68 -49 0 31 -112 57 -129 29
-9 -16 -35 -18 -104 -8 -59 9 -88 26 -42 26 15 0 24 4 20 10 -3 6 -17 10 -31
10 -13 0 -24 5 -24 10 0 6 9 10 19 10 11 0 21 6 24 13 3 8 9 6 19 -7 10 -13
17 -15 22 -8 10 16 26 15 26 -2 0 -16 61 -31 70 -17 9 15 97 16 114 2 18 -15
56 1 56 24 0 21 -20 29 -21 8 -1 -16 -2 -17 -6 -1 -2 10 -19 22 -36 27 -30 9
-31 9 -6 10 18 1 35 13 54 37 25 33 26 37 11 52 -15 15 -20 15 -65 -1 -61 -21
-76 -22 -33 0 24 11 32 21 29 34 -5 18 6 27 33 28 9 0 7 -4 -5 -8z m-55 -21
c0 -5 -2 -10 -4 -10 -3 0 -8 5 -11 10 -3 6 -1 10 4 10 6 0 11 -4 11 -10z m-40
-15 c0 -8 -4 -15 -10 -15 -5 0 -10 7 -10 15 0 8 5 15 10 15 6 0 10 -7 10 -15z
m-580 -20 c-7 -8 -16 -15 -21 -15 -5 0 -6 7 -3 15 4 8 13 15 21 15 13 0 13 -3
3 -15z m910 -22 c0 -24 -25 -9 -28 17 -3 21 -2 22 12 11 9 -7 16 -20 16 -28z
m-407 5 c7 -25 0 -41 -14 -33 -12 8 -12 55 0 55 5 0 11 -10 14 -22z m77 1 c0
-12 -47 -12 -54 0 -3 4 -3 10 0 13 7 8 54 -3 54 -13z m-844 -25 c-4 -14 -2
-24 4 -24 5 0 10 -5 10 -11 0 -8 -5 -8 -15 1 -17 14 -21 75 -4 64 6 -3 8 -17
5 -30z m149 -26 c9 -30 7 -48 -11 -65 -8 -8 -14 -19 -14 -25 0 -6 -2 -9 -5 -6
-3 3 0 17 6 32 9 19 9 32 1 50 -10 23 -7 36 9 36 3 0 10 -10 14 -22z m-307
-20 c18 32 34 27 16 -5 -12 -25 -12 -29 3 -40 9 -7 14 -15 11 -18 -7 -8 -38 5
-38 16 0 5 -7 9 -15 9 -16 0 -20 27 -8 57 6 15 8 13 13 -12 6 -30 6 -30 18 -7z
m622 22 c0 -5 4 -9 9 -7 5 1 9 -1 10 -5 1 -9 -8 -10 -32 -2 -9 3 -15 10 -12
15 8 12 25 12 25 -1z m-250 -4 c0 -2 -7 -6 -15 -10 -8 -3 -15 -1 -15 4 0 6 7
10 15 10 8 0 15 -2 15 -4z m-145 -16 c3 -5 -1 -10 -10 -10 -9 0 -13 5 -10 10
3 6 8 10 10 10 2 0 7 -4 10 -10z m535 -15 c13 -14 18 -25 12 -25 -7 0 -12 4
-12 9 0 5 -9 13 -20 16 -11 3 -20 11 -20 16 0 16 16 10 40 -16z m-700 -20 c0
-8 -4 -15 -10 -15 -5 0 -10 7 -10 15 0 8 5 15 10 15 6 0 10 -7 10 -15z m720
-49 c0 -2 -7 -7 -16 -10 -8 -3 -12 -2 -9 4 6 10 25 14 25 6z m-445 -139 c12
-12 -71 -1 -94 13 -11 6 1 8 34 3 28 -3 55 -10 60 -16z m201 -232 c17 -13 16
-14 -15 -5 -41 11 -51 20 -25 20 11 0 29 -7 40 -15z m149 -56 c11 -17 0 -20
-21 -4 -17 13 -17 14 -2 15 9 0 20 -5 23 -11z"/>
<path d="M1935 4920 c-3 -5 -1 -10 4 -10 6 0 11 5 11 10 0 6 -2 10 -4 10 -3 0
-8 -4 -11 -10z"/>
<path d="M1960 4600 c0 -5 5 -10 10 -10 6 0 10 5 10 10 0 6 -4 10 -10 10 -5 0
-10 -4 -10 -10z"/>
<path d="M1926 4574 c-8 -21 -1 -28 18 -21 9 4 13 13 10 22 -8 20 -20 19 -28
-1z"/>
<path d="M2231 5113 c4 -24 -4 -33 -27 -33 -21 0 -24 -3 -15 -14 18 -22 -12
-39 -56 -32 -37 6 -37 6 -13 -8 37 -21 41 -19 93 30 49 48 57 64 32 64 -8 0
-14 -3 -14 -7z"/>
<path d="M2370 5109 c0 -5 -7 -9 -15 -9 -8 0 -15 -5 -15 -11 0 -6 -17 -29 -39
-50 -21 -22 -44 -39 -50 -39 -6 0 -11 -9 -11 -21 0 -11 -9 -41 -20 -67 -28
-66 -38 -122 -29 -157 5 -16 36 -58 69 -92 33 -35 60 -70 60 -79 0 -10 6 -14
14 -11 18 7 42 -18 26 -28 -5 -3 -15 -3 -21 0 -6 4 -9 1 -8 -6 5 -24 -13 -63
-37 -82 -13 -10 -24 -24 -24 -30 0 -7 -19 -13 -48 -15 -176 -11 -188 -20 -196
-150 -5 -74 -13 -102 -28 -102 -7 0 -8 -17 -4 -47 9 -70 -18 -156 -60 -188
-18 -14 -36 -35 -40 -47 -8 -27 -96 -113 -134 -133 -23 -12 -35 -12 -78 -1
-28 8 -64 23 -79 33 -49 34 -59 38 -39 15 26 -29 5 -28 -22 1 -24 25 -29 43
-10 31 7 -4 8 -3 4 5 -4 6 -11 9 -15 7 -4 -3 -14 4 -22 15 -22 32 -76 53 -189
75 -91 17 -132 18 -148 2 -8 -8 -67 -12 -189 -12 -173 -1 -180 -2 -236 -29
l-59 -27 24 -20 c23 -20 23 -20 4 -35 -11 -8 -28 -13 -37 -10 -10 4 -26 -3
-37 -16 -11 -11 -25 -18 -30 -15 -12 7 -27 -11 -36 -41 -7 -22 -7 -23 22 -6
16 9 36 14 45 10 14 -5 14 -9 1 -36 -11 -23 -21 -29 -40 -27 -14 2 -30 9 -34
16 -6 10 -14 7 -32 -12 -12 -13 -31 -27 -41 -31 -9 -4 -23 -19 -29 -34 -14
-32 -27 -43 -42 -37 -6 2 -16 -6 -21 -18 -6 -12 -27 -30 -47 -41 -27 -13 -44
-32 -58 -65 -11 -25 -19 -47 -16 -49 5 -5 -89 -96 -163 -158 -33 -27 -65 -61
-71 -75 -25 -61 -40 -187 -40 -352 l0 -171 21 19 c22 19 22 19 14 -5 -7 -23
-7 -23 16 -7 39 27 58 19 24 -10 l-30 -25 35 3 c24 2 34 -1 33 -9 -4 -17 12
-16 72 3 28 9 56 18 63 20 7 2 17 14 22 26 5 13 9 18 9 11 2 -26 -14 -45 -53
-65 -34 -17 -57 -21 -133 -19 l-93 2 0 -29 c0 -15 6 -34 13 -41 9 -11 9 -14 0
-18 -18 -6 -16 -43 1 -43 8 0 18 -5 22 -12 5 -8 0 -9 -15 -5 l-21 5 1 -184 c1
-136 4 -186 14 -194 34 -29 195 36 195 78 0 5 6 15 14 21 10 8 16 8 25 -3 9
-11 8 -14 -6 -12 -12 0 -19 -7 -21 -21 -2 -13 -1 -23 3 -23 7 0 58 32 65 41 3
4 28 17 57 29 29 12 58 29 64 37 7 8 44 33 83 55 39 23 88 57 110 76 42 37
123 78 174 88 l32 6 -1 84 c-1 46 -4 84 -8 84 -4 0 -4 26 0 58 10 70 13 498 4
512 -4 6 -2 16 3 23 10 13 10 52 -1 63 -3 4 -2 15 4 26 6 11 10 41 9 66 -4 75
-1 87 23 116 15 18 26 23 33 16 13 -13 263 -13 427 0 24 2 21 14 -10 48 -29
31 -93 53 -93 33 0 -18 -37 -13 -44 6 -9 23 13 35 54 26 19 -4 49 -8 65 -9 58
-3 57 -2 45 -25 -7 -11 -10 -21 -8 -22 2 -1 14 -8 27 -15 18 -10 26 -11 35 -2
8 9 5 16 -13 31 -13 11 -18 19 -10 19 23 0 44 -18 44 -37 0 -10 15 -25 35 -35
40 -20 75 -23 64 -7 -4 7 0 9 14 5 39 -13 182 -16 182 -5 0 12 26 9 135 -15
29 -6 29 -6 5 5 -20 10 -22 13 -8 16 10 3 15 10 11 19 -6 16 5 18 26 5 8 -5
11 -16 8 -25 -4 -9 -2 -16 4 -16 6 0 7 -4 4 -10 -3 -6 1 -7 9 -4 9 3 16 1 16
-5 0 -6 -12 -11 -26 -11 l-27 0 31 -29 c17 -16 49 -42 71 -57 45 -29 52 -39
21 -29 -24 8 -25 -3 -4 -34 14 -19 14 -25 3 -32 -8 -5 -10 -9 -5 -9 5 0 3 -7
-5 -16 -10 -13 -10 -17 2 -25 8 -5 20 -7 27 -4 8 3 19 5 24 5 6 0 9 3 6 6 -4
3 -1 16 6 29 18 35 9 81 -20 94 -13 6 -24 18 -24 27 0 13 4 11 18 -7 12 -13
21 -18 25 -12 4 6 0 16 -8 23 -19 16 -19 30 0 30 23 0 18 17 -11 37 -14 10
-43 33 -64 51 -20 17 -43 32 -49 32 -6 0 -12 5 -12 10 -7 52 -3 78 14 96 10
12 20 30 21 40 2 14 11 19 32 19 39 0 45 32 11 60 -15 13 -27 35 -31 61 -5 39
-4 42 22 53 16 7 35 11 43 9 8 -2 15 6 17 19 5 34 28 48 58 34 14 -6 27 -11
29 -11 9 0 5 19 -7 32 -30 32 -40 59 -27 74 8 10 15 11 24 4 10 -8 20 -4 39
13 14 13 24 26 21 29 -3 2 20 0 50 -5 47 -9 58 -8 74 7 18 16 19 16 25 -7 8
-34 84 -55 104 -29 12 16 14 16 30 -3 36 -43 106 -51 117 -14 9 27 16 19 8 -9
-3 -12 -12 -22 -19 -22 -8 0 -14 -5 -14 -11 0 -7 -11 -9 -27 -6 -15 3 -37 -1
-49 -10 -22 -14 -24 -13 -30 14 -4 15 -9 31 -11 35 -6 12 -33 -3 -33 -18 0
-24 -65 -18 -84 9 -12 15 -18 18 -22 9 -3 -6 -9 -10 -14 -7 -5 3 -20 0 -34 -6
-22 -10 -26 -19 -26 -56 0 -28 4 -43 13 -43 6 0 26 -10 42 -21 17 -12 21 -18
10 -14 -42 16 -65 17 -78 4 -7 -8 -12 -20 -9 -27 5 -16 -43 -34 -74 -26 -21 5
-24 3 -24 -19 0 -14 7 -27 15 -31 21 -8 19 -26 -2 -24 -44 3 -53 -2 -53 -30 0
-16 3 -32 7 -36 4 -3 8 -15 10 -26 2 -14 -3 -20 -16 -20 -23 0 -63 -47 -59
-69 2 -9 13 -20 25 -26 12 -5 24 -17 26 -27 5 -16 19 -18 141 -17 106 0 136 3
136 13 0 8 6 19 14 25 12 10 15 8 18 -11 2 -19 10 -23 46 -26 39 -3 55 9 32
23 -16 10 -12 42 6 49 11 4 20 -5 31 -34 18 -45 40 -53 133 -47 30 2 67 0 82
-4 16 -4 28 -3 30 3 3 7 11 7 27 -1 12 -7 44 -11 70 -10 26 1 53 -1 61 -6 10
-6 12 -3 8 13 -6 22 17 33 24 12 2 -7 23 -2 53 11 39 17 74 23 160 26 120 4
139 8 130 23 -9 15 22 12 38 -4 11 -11 24 -12 53 -6 21 4 64 11 94 14 30 4 81
11 113 18 72 13 172 6 220 -17 62 -29 128 -12 204 52 21 18 51 43 67 56 25 20
29 32 35 93 8 90 -11 270 -39 359 -12 39 -26 89 -32 113 -6 23 -15 42 -19 42
-12 0 -3 164 10 189 10 17 10 30 2 49 -17 41 -6 72 39 113 22 20 40 41 40 47
0 5 14 15 31 22 31 13 36 12 117 -18 8 -3 10 1 6 12 -4 11 -1 16 11 16 11 0
15 -5 11 -15 -3 -8 0 -15 7 -15 7 -1 42 -3 80 -6 l67 -6 2 49 c0 26 1 56 0 66
-1 9 2 17 7 17 4 0 16 20 27 45 20 49 74 95 112 95 12 0 30 10 41 22 18 19 21
19 27 5 9 -24 75 -22 105 2 l23 18 -48 28 c-61 36 -197 95 -216 94 -10 0 -11
-2 -2 -6 20 -8 14 -29 -13 -41 -21 -10 -26 -9 -35 8 -8 15 -6 22 11 34 20 14
19 15 -22 20 -24 4 -156 5 -294 4 l-250 -3 3 -46 c2 -26 -1 -50 -7 -54 -11 -6
-16 33 -12 83 l2 22 -203 -1 c-112 -1 -195 -3 -185 -6 22 -6 23 -51 1 -60 -9
-3 -25 -1 -34 5 -14 9 -22 6 -40 -13 -19 -20 -22 -31 -16 -64 3 -23 2 -42 -4
-46 -17 -11 -11 -27 9 -20 13 4 25 -5 47 -37 16 -24 33 -46 39 -50 6 -5 3 -8
-7 -8 -9 0 -27 11 -40 24 -13 14 -30 26 -38 28 -31 7 -48 34 -52 85 -3 35 0
59 8 72 12 16 11 20 -1 24 -15 6 -19 -3 -30 -65 -3 -21 -9 -40 -14 -42 -5 -3
-2 20 5 52 16 67 16 72 7 72 -5 0 -17 -19 -27 -43 -13 -28 -20 -37 -23 -25 -2
9 9 38 26 65 l30 48 -31 3 c-18 2 -34 -2 -39 -10 -7 -10 -11 -10 -17 -1 -6 9
-71 12 -256 10 l-248 -2 -15 -43 c-13 -40 -13 -45 8 -80 12 -20 31 -47 42 -59
21 -23 16 -43 -10 -43 -13 0 -10 -7 12 -30 16 -16 24 -30 19 -30 -6 0 -21 11
-33 24 -13 14 -37 30 -54 37 -18 7 -50 30 -71 50 -31 29 -43 36 -53 27 -7 -6
-13 -16 -12 -22 1 -6 -2 -21 -6 -33 -7 -22 -33 -29 -87 -24 -20 3 -23 -10 -7
-26 8 -8 3 -16 -20 -27 -33 -18 -51 -43 -51 -75 0 -31 17 -34 51 -10 l31 22
-7 -22 c-5 -15 -2 -21 9 -21 9 0 16 5 16 10 0 6 7 10 16 10 11 0 14 -6 9 -21
-4 -11 -4 -36 -1 -55 8 -40 46 -56 74 -31 24 22 52 4 52 -34 0 -32 13 -41 61
-43 19 -1 31 -8 38 -23 6 -13 15 -23 20 -23 21 0 52 45 48 68 -2 12 0 25 4 28
5 3 9 -4 9 -15 0 -16 6 -21 24 -21 14 0 28 5 31 10 3 6 10 10 16 10 5 0 9 -4
9 -10 0 -5 -7 -10 -15 -10 -9 0 -18 -7 -22 -16 -3 -8 -12 -13 -20 -10 -8 3
-11 1 -8 -4 3 -6 2 -10 -3 -10 -5 0 -12 -9 -15 -20 -3 -13 -14 -20 -30 -20
-14 0 -27 -6 -30 -12 -3 -10 -7 -10 -20 1 -11 9 -17 10 -17 2 0 -14 -16 -14
-80 0 -28 6 -50 16 -50 23 0 11 -10 26 -50 74 -17 19 -30 14 -41 -14 -9 -25
-17 -30 -18 -11 -1 18 -36 67 -48 67 -21 0 -15 -28 8 -40 15 -9 18 -15 9 -25
-9 -11 -16 -11 -40 2 -41 20 -46 33 -20 53 19 14 21 20 11 39 -14 26 -38 22
-33 -5 4 -17 2 -17 -20 4 -13 12 -32 22 -41 22 -9 0 -17 6 -17 13 0 8 -9 22
-20 32 -15 13 -20 31 -20 66 0 26 5 51 10 54 6 4 10 -13 11 -42 1 -74 17 -101
19 -33 1 30 1 65 0 78 -2 33 17 27 24 -8 3 -16 9 -43 12 -60 3 -16 2 -30 -3
-30 -4 0 -14 -9 -21 -20 -11 -19 -10 -20 29 -20 38 0 41 2 34 23 -16 46 -3
165 19 172 6 2 27 6 47 9 30 5 36 10 32 26 -3 10 -11 21 -19 24 -8 3 -14 12
-14 21 0 8 -4 15 -10 15 -14 0 -12 12 8 37 13 17 33 23 91 28 71 7 73 7 66
-14 -4 -14 -2 -21 7 -21 8 0 19 -13 25 -30 6 -16 18 -30 27 -30 9 0 16 -7 16
-15 0 -8 7 -15 15 -15 8 0 15 -6 15 -14 0 -11 20 -26 35 -26 12 0 -13 47 -42
76 -18 19 -31 39 -28 44 3 5 1 11 -4 14 -5 4 -12 23 -16 44 l-6 37 -119 2
c-70 1 -120 -2 -120 -8z m1946 -39 c8 0 13 -4 10 -9 -7 -11 -44 -3 -52 11 -3
5 0 16 8 25 12 15 13 14 16 -5 2 -12 10 -22 18 -22z m-1777 26 c-7 -7 -89 -25
-89 -20 0 8 44 23 69 23 13 1 22 -1 20 -3z m611 -32 c14 -40 7 -79 -14 -87
-16 -6 -12 16 7 41 5 7 7 15 3 19 -3 3 -6 0 -6 -7 0 -21 -18 1 -20 25 -6 56
13 62 30 9z m70 -3 c0 -11 -4 -23 -10 -26 -6 -4 -10 5 -10 19 0 14 5 26 10 26
6 0 10 -9 10 -19z m1165 -2 c10 -15 -1 -23 -20 -15 -9 3 -13 10 -10 16 8 13
22 13 30 -1z m-125 -8 c0 -5 -7 -14 -15 -21 -8 -7 -15 -24 -15 -38 0 -20 -3
-23 -12 -14 -7 7 -17 8 -30 1 -32 -17 -21 12 20 47 38 34 52 41 52 25z m255
-11 c4 -6 -5 -10 -19 -10 -14 0 -26 5 -26 10 0 6 9 10 19 10 11 0 23 -4 26
-10z m-600 -10 c3 -5 2 -10 -3 -10 -4 0 -23 -14 -40 -31 -42 -41 -50 -33 -15
14 28 37 47 45 58 27z m75 -12 c0 -13 -32 -6 -37 9 -3 7 3 9 16 6 12 -3 21
-10 21 -15z m70 -8 c0 -5 -9 -10 -19 -10 -11 0 -23 5 -26 10 -4 6 5 10 19 10
14 0 26 -4 26 -10z m389 -6 c2 -2 -7 -4 -22 -4 -14 0 -29 5 -32 10 -6 10 42 4
54 -6z m-1249 -8 c0 -15 -18 -31 -26 -23 -7 7 7 37 17 37 5 0 9 -6 9 -14z
m264 2 c24 -90 45 -192 40 -199 -12 -20 -21 -6 -42 64 -28 97 -34 126 -27 137
9 14 25 12 29 -2z m1090 6 c9 -3 16 -10 16 -15 0 -14 -26 -10 -40 6 -13 16 -3
20 24 9z m-450 -20 c4 -11 13 -14 27 -11 16 4 19 2 15 -10 -4 -9 -1 -22 5 -30
7 -7 10 -16 7 -19 -8 -7 -78 58 -78 73 0 18 17 16 24 -3z m-1713 -15 c11 -18
2 -26 -13 -11 -20 20 -44 14 -57 -14 -9 -20 -9 -30 0 -40 9 -11 8 -14 -1 -14
-7 0 -19 8 -26 18 -13 16 -13 16 -14 0 0 -10 -5 -18 -11 -18 -6 0 -8 8 -5 18
4 9 -5 4 -18 -13 -14 -16 -25 -24 -26 -17 0 6 5 12 10 12 6 0 10 5 10 10 0 6
12 29 26 51 25 40 27 41 71 36 25 -3 49 -11 54 -18z m774 -38 c-7 -23 -25 -29
-25 -8 0 14 21 39 28 33 2 -3 1 -14 -3 -25z m1065 -6 c0 -25 -23 -35 -35 -15
-3 6 -1 10 4 10 6 0 11 7 11 15 0 8 5 15 10 15 6 0 10 -11 10 -25z m-1020 -5
c-24 -15 -37 -11 -16 5 11 8 22 12 25 9 3 -3 -1 -9 -9 -14z m617 -11 c-6 -10
-13 -15 -15 -9 -6 17 7 42 18 35 6 -4 5 -13 -3 -26z m-560 -5 c-3 -3 -12 -4
-19 -1 -8 3 -5 6 6 6 11 1 17 -2 13 -5z m1017 -10 c9 -3 16 -10 16 -15 0 -14
-24 -11 -46 6 -16 12 -17 14 -2 15 9 0 23 -3 32 -6z m-1154 -13 c0 -13 -26
-32 -33 -24 -8 7 11 33 24 33 5 0 9 -4 9 -9z m1259 0 c10 -1 12 -10 7 -33 -8
-42 -9 -42 -50 -28 -39 12 -43 19 -24 38 9 9 9 12 0 12 -7 0 -12 4 -12 9 0 5
15 7 33 6 17 -2 38 -3 46 -4z m-588 -54 c-8 -8 -11 -5 -11 9 0 27 14 41 18 19
2 -9 -1 -22 -7 -28z m495 -3 c-3 -8 -10 -12 -16 -9 -7 4 -6 14 2 28 12 24 24
8 14 -19z m-1212 1 c-7 -16 -30 -20 -38 -6 -7 11 4 21 25 21 12 0 16 -5 13
-15z m-60 -39 c-9 -24 -34 -28 -34 -6 0 13 7 20 20 20 13 0 17 -5 14 -14z
m756 -6 c-6 -11 -13 -20 -15 -20 -3 0 -5 9 -5 20 0 11 7 20 15 20 13 0 14 -4
5 -20z m570 10 c0 -5 -6 -10 -14 -10 -8 0 -18 5 -21 10 -3 6 3 10 14 10 12 0
21 -4 21 -10z m-10 -31 c0 -6 -7 -9 -15 -5 -10 3 -15 -1 -16 -14 -3 -40 -5
-45 -19 -42 -39 9 -36 57 3 65 40 8 47 7 47 -4z m-1350 -29 c0 -11 -4 -20 -9
-20 -11 0 -22 26 -14 34 12 12 23 5 23 -14z m530 -5 c0 -15 -6 -25 -14 -25
-19 0 -28 14 -20 34 10 25 34 19 34 -9z m240 -6 c0 -11 -4 -17 -10 -14 -5 3
-10 13 -10 21 0 8 5 14 10 14 6 0 10 -9 10 -21z m-720 -60 c0 -6 -7 -8 -16 -5
-9 3 -18 6 -20 6 -2 0 -4 7 -4 15 0 13 4 14 20 5 11 -6 20 -16 20 -21z m770
21 c8 -5 11 -12 8 -16 -10 -9 -38 3 -38 16 0 12 10 13 30 0z m-305 -67 c-3
-21 -17 -64 -30 -96 -14 -34 -19 -60 -13 -63 6 -4 6 -10 0 -16 -14 -14 -56 10
-44 25 10 14 48 119 56 160 4 15 13 27 22 27 13 0 15 -7 9 -37z m-424 11 c12
-14 11 -16 -5 -13 -11 2 -21 10 -24 17 -5 17 13 15 29 -4z m772 2 c6 -16 -2
-28 -14 -20 -12 7 -11 34 0 34 5 0 11 -6 14 -14z m65 -22 c15 -4 21 -12 18
-23 -2 -9 -7 -33 -11 -55 -6 -38 -6 -38 -47 -33 -22 3 -41 7 -43 9 -9 9 15 81
32 93 21 17 21 17 51 9z m-1213 -14 c3 -5 1 -10 -4 -10 -6 0 -11 5 -11 10 0 6
2 10 4 10 3 0 8 -4 11 -10z m395 -16 c0 -29 -25 -44 -64 -37 -49 8 -56 23 -11
23 22 0 38 6 41 15 8 20 34 19 34 -1z m-142 -11 c2 -8 -5 -13 -17 -13 -12 0
-21 6 -21 16 0 18 31 15 38 -3z m-68 -11 c0 -11 -9 -29 -20 -42 -11 -13 -20
-17 -20 -11 0 25 -23 4 -26 -23 -3 -30 -11 -43 -20 -34 -3 4 -1 15 5 26 8 15
8 21 -2 25 -9 3 -9 8 2 21 8 9 16 14 19 12 2 -3 13 6 24 19 23 30 38 32 38 7z
m-462 -30 c3 -9 -2 -13 -14 -10 -9 1 -19 9 -22 16 -3 9 2 13 14 10 9 -1 19 -9
22 -16z m702 -30 c-15 -5 -41 18 -34 30 3 5 15 1 26 -9 11 -10 15 -19 8 -21z
m-624 12 c13 -3 24 -12 24 -20 0 -17 -16 -18 -26 -3 -4 7 -21 9 -40 6 -19 -3
-36 -2 -39 3 -7 12 26 31 43 25 8 -3 25 -8 38 -11z m694 -14 c0 -5 -9 -10 -20
-10 -11 0 -20 5 -20 10 0 6 9 10 20 10 11 0 20 -4 20 -10z m65 0 c3 -5 -3 -10
-14 -10 -11 0 -23 5 -26 10 -3 6 3 10 14 10 11 0 23 -4 26 -10z m67 -18 c-19
-6 -44 6 -37 18 4 7 14 6 28 -2 14 -7 17 -13 9 -16z m-925 -7 c-7 -17 -47 -21
-47 -5 0 11 41 31 49 24 2 -2 1 -10 -2 -19z m177 9 c9 -3 16 -13 16 -21 0 -10
-6 -13 -16 -9 -9 3 -18 6 -20 6 -2 0 -4 7 -4 15 0 17 2 18 24 9z m196 -24 c-8
-5 -21 -10 -29 -10 -11 0 -10 5 4 20 13 15 22 17 29 10 8 -8 6 -14 -4 -20z
m615 19 c10 -14 1 -21 -19 -13 -9 3 -13 10 -10 15 7 12 21 11 29 -2z m-737
-37 c3 -9 -2 -13 -14 -10 -9 1 -19 9 -22 16 -3 9 2 13 14 10 9 -1 19 -9 22
-16z m-308 -7 c0 -17 -27 -32 -37 -21 -4 3 2 13 13 21 24 18 24 18 24 0z m378
3 c-5 -16 -48 -24 -48 -9 0 8 17 16 43 20 5 0 7 -5 5 -11z m805 2 c8 0 8 -3 1
-10 -12 -12 -44 -3 -44 12 0 6 7 7 16 4 9 -3 21 -6 27 -6z m267 -5 c7 -8 23
-15 36 -15 12 0 26 -4 29 -10 4 -6 -6 -10 -24 -10 -16 0 -37 -3 -47 -7 -13 -5
-16 -3 -11 10 3 9 2 19 -3 22 -12 8 -13 25 -1 25 5 0 14 -7 21 -15z m-410 -19
c0 -15 -37 -32 -47 -22 -9 8 17 36 33 36 8 0 14 -6 14 -14z m-1104 -33 c-3 -3
-13 -3 -22 1 -16 6 -15 8 2 21 16 12 19 12 22 -1 2 -9 1 -18 -2 -21z m1309 27
c8 -13 -15 -13 -35 0 -12 8 -11 10 7 10 12 0 25 -4 28 -10z m76 -10 c5 0 9 -4
9 -10 0 -5 -11 -10 -25 -10 -16 0 -25 6 -25 16 0 11 5 14 16 10 9 -3 20 -6 25
-6z m79 0 c0 -5 -6 -10 -14 -10 -8 0 -18 5 -21 10 -3 6 3 10 14 10 12 0 21 -4
21 -10z m178 -5 c-2 -5 -9 -9 -15 -9 -7 1 -13 -4 -13 -12 0 -8 -7 -14 -15 -14
-20 0 -19 20 3 36 19 15 45 14 40 -1z m-1768 -30 c0 -14 -4 -25 -10 -25 -5 0
-10 11 -10 25 0 14 5 25 10 25 6 0 10 -11 10 -25z m56 10 c-22 -17 -36 -19
-36 -7 0 14 12 22 34 22 21 -1 21 -1 2 -15z m1094 -18 c0 -7 -14 -21 -30 -32
-16 -11 -30 -23 -30 -27 0 -5 -6 -8 -13 -8 -7 0 -26 -16 -41 -35 -16 -19 -35
-35 -43 -35 -30 0 -6 35 65 97 67 59 92 70 92 40z m534 15 c2 -4 1 -14 -4 -22
-7 -11 -12 -12 -21 -3 -6 6 -8 16 -5 22 8 13 23 14 30 3z m-1517 -34 c-3 -7
-5 -2 -5 12 0 14 2 19 5 13 2 -7 2 -19 0 -25z m1293 17 c0 -8 -7 -15 -15 -15
-26 0 -18 20 13 29 1 1 2 -6 2 -14z m-692 -40 c-3 -3 -9 2 -12 12 -6 14 -5 15
5 6 7 -7 10 -15 7 -18z m633 -18 c-16 -16 -26 0 -10 19 9 11 15 12 17 4 2 -6
-1 -17 -7 -23z m-1367 13 c23 -8 26 -15 26 -58 0 -27 3 -52 7 -55 3 -4 19 16
35 43 30 53 30 53 66 44 28 -8 26 -13 -33 -104 -25 -38 -45 -74 -45 -79 0 -15
-43 -14 -62 2 -24 19 -45 217 -23 217 2 0 15 -4 29 -10z m1706 -16 c0 -8 5
-12 10 -9 6 3 10 -1 10 -9 0 -19 -11 -21 -28 -4 -15 15 -16 38 -2 38 6 0 10
-7 10 -16z m-1774 -31 c-11 -11 -19 6 -11 24 8 17 8 17 12 0 3 -10 2 -21 -1
-24z m1634 17 c0 -5 -4 -10 -9 -10 -6 0 -13 5 -16 10 -3 6 1 10 9 10 9 0 16
-4 16 -10z m-230 -20 c0 -12 -28 -25 -36 -17 -9 9 6 27 22 27 8 0 14 -5 14
-10z m-1057 -9 c25 -10 28 -19 43 -145 3 -28 7 -53 10 -57 8 -13 -14 -20 -41
-13 -16 4 -25 13 -25 25 0 11 -11 25 -26 31 -24 11 -29 10 -42 -10 -16 -25
-57 -30 -65 -7 -4 8 8 36 26 62 18 26 42 65 54 86 24 40 29 42 66 28z m103
-28 c-1 -16 -5 -31 -11 -35 -6 -4 -2 -8 8 -8 18 0 23 -15 8 -24 -5 -3 -12 -26
-15 -51 -8 -52 -26 -51 -26 1 0 19 4 33 9 30 11 -7 2 34 -11 50 -5 7 -3 14 7
18 8 3 15 15 15 26 0 11 4 20 8 20 4 0 8 -12 8 -27z m109 17 c-3 -5 -11 -10
-16 -10 -6 0 -7 5 -4 10 3 6 11 10 16 10 6 0 7 -4 4 -10z m1120 -4 c0 0 6 -11
13 -23 10 -20 10 -23 -4 -23 -8 0 -13 4 -10 9 3 4 -6 13 -19 19 -32 15 -33 36
-2 26 12 -3 22 -7 22 -8z m100 -7 c0 -8 -7 -14 -15 -14 -8 0 -21 -7 -27 -15
-11 -13 -14 -13 -23 0 -7 12 -5 16 11 18 11 2 23 10 26 18 7 18 28 13 28 -7z
m-1769 -42 c8 -22 9 -39 3 -42 -5 -4 -9 -1 -9 5 0 6 -7 18 -15 26 -18 18 -20
57 -3 52 6 -2 17 -21 24 -41z m1334 28 c0 -8 -9 -15 -20 -15 -22 0 -27 15 -7
23 21 9 27 7 27 -8z m-792 -10 c2 -1 -4 -33 -13 -70 -8 -37 -13 -70 -10 -75 3
-5 23 -11 45 -15 22 -4 40 -8 40 -10 0 -2 -4 -15 -9 -28 -9 -24 -10 -24 -62
-11 -30 8 -61 14 -71 14 -22 0 -23 16 -2 111 22 106 20 102 52 94 15 -4 28 -8
30 -10z m138 6 c-7 -11 -56 -21 -56 -10 0 4 8 10 18 12 30 8 43 7 38 -2z m308
-30 c3 -4 -3 -16 -13 -25 -21 -19 -37 -7 -27 19 6 16 32 20 40 6z m296 1 c0
-4 -5 -13 -12 -20 -7 -7 -16 -12 -20 -12 -13 0 -9 28 5 33 19 8 27 8 27 -1z
m-497 -26 c40 -6 47 -10 47 -30 0 -32 -6 -35 -51 -24 -42 11 -64 4 -39 -12 8
-6 25 -10 38 -10 20 0 23 -5 20 -27 -3 -26 -6 -28 -40 -25 -52 5 -48 -15 4
-25 46 -9 55 -20 36 -45 -12 -15 -19 -16 -74 -4 -68 14 -87 23 -79 37 7 10 9
19 25 104 17 88 16 86 42 76 13 -4 44 -11 71 -15z m957 -1 c0 -7 9 -15 20 -18
14 -4 20 -14 20 -35 0 -45 -9 -60 -31 -55 -14 4 -19 14 -19 39 0 19 -5 34 -11
34 -8 0 -8 5 1 15 9 10 9 15 1 15 -6 0 -11 7 -11 15 0 9 6 12 15 9 8 -4 15
-12 15 -19z m-1783 1 c-3 -8 1 -17 9 -20 9 -3 12 -10 9 -16 -7 -12 -45 -14
-45 -2 1 21 14 52 22 52 6 0 8 -6 5 -14z m627 3 c-2 -4 1 -9 7 -11 7 -2 7 -8
-3 -15 -17 -15 -43 0 -35 19 3 8 12 15 21 15 8 0 13 -4 10 -8z m1096 2 c0 -5
-7 -12 -16 -15 -22 -9 -24 -8 -24 9 0 8 9 15 20 15 11 0 20 -4 20 -9z m-470
-10 c0 -14 -18 -23 -30 -16 -6 4 -8 11 -5 16 8 12 35 12 35 0z m-65 -10 c3 -6
-3 -15 -14 -21 -24 -12 -42 7 -20 21 18 11 26 11 34 0z m-965 -16 c0 -8 -7
-15 -15 -15 -8 0 -15 7 -15 15 0 8 7 15 15 15 8 0 15 -7 15 -15z m464 -10 c6
-16 -3 -19 -28 -9 -9 3 -13 10 -10 15 8 14 31 11 38 -6z m302 1 c11 -8 26 -33
34 -55 7 -23 16 -41 20 -41 4 0 10 18 14 40 4 29 11 40 24 40 39 -1 41 -11 19
-113 -18 -88 -23 -98 -41 -95 -14 2 -29 20 -46 55 -14 29 -28 52 -31 53 -4 0
-9 -18 -13 -40 -5 -34 -10 -40 -31 -40 -14 0 -28 6 -31 14 -5 12 17 137 31
184 6 16 26 15 51 -2z m688 -11 c-4 -8 -10 -15 -15 -15 -5 0 -9 7 -9 15 0 8 7
15 15 15 9 0 12 -6 9 -15z m-1057 -1 c-3 -3 -12 -4 -19 -1 -8 3 -5 6 6 6 11 1
17 -2 13 -5z m-647 -18 c0 -15 -18 -31 -26 -23 -7 7 7 37 17 37 5 0 9 -6 9
-14z m1318 -28 c59 -11 63 -13 60 -37 -3 -23 -7 -26 -34 -23 l-31 3 -15 -73
c-13 -68 -16 -73 -38 -70 -34 4 -44 16 -32 39 6 11 14 43 18 71 6 47 5 52 -12
52 -32 0 -42 13 -33 39 7 18 14 22 32 17 12 -3 50 -11 85 -18z m362 -12 c0
-24 -18 -28 -30 -6 -9 17 -8 20 10 20 11 0 20 -6 20 -14z m-1720 -16 c0 -11
-7 -20 -15 -20 -17 0 -18 2 -9 24 9 23 24 20 24 -4z m1538 -14 c1 -2 -6 -44
-18 -95 -11 -50 -20 -93 -20 -96 0 -3 -13 -5 -29 -5 -16 0 -31 -6 -34 -12 -5
-16 -1 6 19 97 9 39 17 81 19 95 2 14 4 27 4 29 1 3 54 -8 59 -13z m131 -38
c5 -13 15 -39 24 -58 l14 -35 7 30 c4 17 11 37 15 45 8 14 39 15 53 2 8 -8
-29 -183 -41 -195 -17 -17 -50 13 -74 65 l-24 53 -8 -47 c-6 -40 -11 -48 -29
-48 -27 0 -48 20 -38 34 5 6 14 43 21 81 17 95 17 95 46 95 17 0 28 -7 34 -22z
m-1689 -7 c0 -5 -7 -14 -15 -21 -12 -10 -15 -10 -15 2 0 8 3 18 7 21 9 10 23
9 23 -2z m962 -33 c-8 -18 -17 -27 -19 -22 -6 17 16 66 26 60 5 -4 2 -20 -7
-38z m508 27 c0 -30 -41 -48 -55 -25 -13 21 3 38 29 33 14 -3 26 -7 26 -8z
m120 3 c0 -7 -4 -19 -9 -27 -11 -17 -25 3 -17 24 7 18 26 20 26 3z m400 -43
c19 -7 34 -15 33 -19 -2 -3 -3 -13 -3 -22 0 -12 -8 -14 -45 -8 -51 7 -64 -10
-14 -20 25 -5 30 -10 27 -28 -3 -20 -8 -23 -41 -21 -62 4 -45 -24 19 -31 23
-3 29 -9 30 -27 1 -13 -2 -27 -7 -30 -5 -3 -41 1 -79 9 -55 12 -70 19 -70 33
0 19 27 155 35 177 5 14 51 9 115 -13z m-2037 -9 c3 -8 -1 -17 -10 -20 -20 -8
-27 -1 -20 19 8 19 23 20 30 1z m987 -38 c0 -7 -5 -20 -10 -28 -8 -12 -10 -9
-10 13 0 15 5 27 10 27 6 0 10 -6 10 -12z m-2160 -39 c0 -5 -14 -9 -31 -9 -16
0 -28 3 -26 8 7 10 57 12 57 1z m2248 -14 c-2 -14 -7 -26 -13 -26 -5 0 -11 12
-13 26 -2 18 1 25 13 25 12 0 15 -7 13 -25z m-2298 -25 c0 -5 -9 -12 -20 -15
-11 -3 -20 -13 -20 -21 0 -16 -26 -19 -35 -4 -3 6 7 18 24 28 17 9 31 21 31
25 0 5 5 5 10 2 6 -3 10 -10 10 -15z m88 8 c7 -7 12 -16 12 -22 0 -6 -5 -5
-12 2 -7 7 -28 12 -47 13 -33 1 -34 2 -11 9 36 12 45 11 58 -2z m2102 5 c0 -5
-4 -15 -10 -23 -11 -18 -25 -7 -17 15 6 15 27 21 27 8z m-54 -81 c-14 -14 -16
-14 -16 -1 0 20 23 44 29 28 2 -6 -4 -18 -13 -27z m594 13 c0 -8 -4 -17 -10
-20 -6 -4 -10 5 -10 20 0 15 4 24 10 20 6 -3 10 -12 10 -20z m-400 5 c0 -17
50 -84 87 -116 19 -18 32 -37 29 -43 -12 -18 -25 -13 -59 23 -68 72 -92 109
-83 132 6 16 26 19 26 4z m553 3 c-7 -2 -21 -2 -30 0 -10 3 -4 5 12 5 17 0 24
-2 18 -5z m-2802 -46 c-7 -12 -13 -32 -15 -42 -2 -15 -11 -20 -37 -20 -46 0
-48 34 -2 55 17 8 34 24 37 35 4 15 8 17 17 8 10 -10 10 -18 0 -36z m969 8 c0
-8 -4 -17 -10 -20 -6 -4 -10 5 -10 20 0 15 4 24 10 20 6 -3 10 -12 10 -20z
m-1072 5 c8 0 10 -9 6 -27 -9 -38 -20 -49 -38 -34 -7 6 -18 10 -24 9 -13 -4
-14 5 -6 38 5 20 11 24 28 20 11 -3 27 -6 34 -6z m292 6 c0 -2 -7 -7 -16 -10
-8 -3 -12 -2 -9 4 6 10 25 14 25 6z m1840 -30 c0 -15 -18 -31 -26 -23 -7 7 7
37 17 37 5 0 9 -6 9 -14z m612 -31 c-12 -22 -27 -2 -18 22 5 12 10 13 17 6 7
-7 8 -17 1 -28z m-2347 16 c11 -5 32 -5 46 -1 43 13 219 -29 219 -51 0 -12
-23 -12 -35 0 -13 11 -116 41 -144 41 -12 0 -21 -5 -21 -11 0 -7 -24 -8 -76
-4 -56 6 -78 4 -84 -5 -5 -9 -17 -8 -51 4 l-44 16 43 -6 c34 -5 42 -3 42 10 0
12 10 16 43 15 23 0 51 -4 62 -8z m-234 -21 c5 0 9 -4 9 -9 0 -12 -38 -2 -47
12 -4 7 0 8 11 4 10 -4 22 -7 27 -7z m932 -4 c6 -16 -2 -28 -14 -20 -12 7 -11
34 0 34 5 0 11 -6 14 -14z m1023 -53 c-12 -12 -29 15 -21 34 7 17 8 16 18 -5
5 -12 7 -25 3 -29z m-2251 26 c5 -6 26 -8 60 -4 43 6 53 4 58 -9 4 -9 17 -21
29 -26 24 -9 -3 -12 -134 -14 -62 -1 -63 0 -48 38 10 27 24 33 35 15z m-55
-15 c0 -8 -4 -13 -9 -10 -5 4 -7 -3 -4 -13 3 -13 -2 -21 -16 -26 -33 -10 -43
3 -26 36 17 31 55 41 55 13z m1330 -9 c0 -14 -2 -25 -4 -25 -2 0 -6 11 -8 25
-3 14 -1 25 3 25 5 0 9 -11 9 -25z m1600 -1 c0 -8 -7 -14 -15 -14 -17 0 -18 2
-9 24 7 18 24 12 24 -10z m367 20 c-3 -3 -12 -4 -19 -1 -8 3 -5 6 6 6 11 1 17
-2 13 -5z m40 -10 c-3 -3 -12 -4 -19 -1 -8 3 -5 6 6 6 11 1 17 -2 13 -5z
m-2749 -19 c18 -14 20 -19 9 -35 -15 -25 -24 -25 -32 0 -7 21 -55 29 -55 9 0
-6 -7 -9 -15 -5 -8 3 -15 1 -15 -5 0 -6 -16 -9 -38 -8 -21 2 -43 -1 -50 -5
-22 -14 -28 5 -7 21 13 9 33 13 58 10 30 -4 39 -1 47 14 13 24 66 26 98 4z
m717 -6 c8 -23 1 -34 -14 -24 -13 8 -15 45 -2 45 5 0 13 -9 16 -21z m1660 11
c3 -5 -1 -10 -10 -10 -9 0 -13 5 -10 10 3 6 8 10 10 10 2 0 7 -4 10 -10z
m-1115 -20 c0 -5 -2 -10 -4 -10 -3 0 -8 5 -11 10 -3 6 -1 10 4 10 6 0 11 -4
11 -10z m-1583 -6 c-3 -3 -12 -4 -19 -1 -8 3 -5 6 6 6 11 1 17 -2 13 -5z
m2073 -4 c0 8 3 11 6 8 3 -4 0 -16 -7 -29 -11 -22 -12 -22 -25 -4 -16 22 -8
40 12 24 11 -9 14 -9 14 1z m-505 -30 c3 -5 -1 -10 -9 -10 -9 0 -16 5 -16 10
0 6 4 10 9 10 6 0 13 -4 16 -10z m-1865 -7 c0 -5 -9 -35 -19 -68 -15 -48 -23
-60 -41 -61 -23 -1 -90 -60 -90 -80 0 -7 -11 -25 -24 -41 -13 -15 -24 -31 -24
-36 0 -4 -3 -23 -6 -42 -4 -19 -3 -43 2 -52 5 -9 6 -28 2 -43 -8 -29 -2 -80 9
-80 4 0 23 14 41 30 37 33 60 39 60 15 0 -8 -6 -15 -12 -15 -20 0 -77 -58 -84
-85 -3 -13 -2 -62 4 -107 5 -46 8 -85 6 -87 -2 -2 -15 -3 -29 -3 -14 0 -28 -4
-31 -9 -12 -20 -26 -8 -20 19 6 25 5 26 -8 8 -10 -12 -21 -16 -33 -11 -16 6
-14 9 12 21 17 7 37 13 46 14 19 0 28 42 21 90 -4 26 -8 29 -28 24 -31 -8 -33
16 -3 34 18 12 21 20 16 60 -3 31 0 56 10 76 12 22 12 33 4 50 -14 26 -8 85
13 127 9 18 16 45 16 61 0 29 6 39 46 83 12 13 19 26 17 29 -3 3 3 8 13 12 55
18 74 28 74 38 0 14 20 36 32 36 4 0 8 -3 8 -7z m1414 -29 c16 -6 23 -34 8
-34 -10 0 -32 22 -32 32 0 10 3 10 24 2z m-1555 -37 c-2 -1 -13 -9 -24 -17
-19 -14 -19 -14 -6 3 7 9 18 17 24 17 6 0 8 -1 6 -3z m1621 -12 c7 -9 11 -18
8 -20 -9 -10 -38 7 -38 21 0 18 14 18 30 -1z m-1800 -193 c-6 -2 -8 -7 -5 -12
3 -5 -4 -11 -15 -15 -13 -4 -20 -15 -20 -31 0 -13 -4 -24 -9 -24 -5 0 -12 -15
-16 -32 -11 -57 -17 -70 -25 -62 -8 9 8 88 23 111 4 6 5 18 1 26 -3 10 5 18
25 25 19 7 31 18 31 29 0 15 2 16 10 3 6 -10 6 -16 0 -18z"/>
<path d="M3890 4569 c0 -5 5 -7 10 -4 6 3 10 8 10 11 0 2 -4 4 -10 4 -5 0 -10
-5 -10 -11z"/>
<path d="M2860 4530 c-8 -5 -12 -12 -9 -15 4 -3 12 1 19 10 14 17 11 19 -10 5z"/>
<path d="M2432 4150 c-10 -17 -10 -20 3 -20 8 0 15 9 15 20 0 11 -1 20 -3 20
-1 0 -8 -9 -15 -20z"/>
<path d="M765 3669 c-4 -6 -5 -12 -2 -15 2 -3 7 2 10 11 7 17 1 20 -8 4z"/>
<path d="M383 3426 c-36 -31 -24 -45 15 -17 17 12 35 21 41 21 6 0 11 5 11 10
0 18 -39 10 -67 -14z"/>
<path d="M3346 5095 c19 -30 18 -29 38 -9 25 24 19 34 -19 34 l-35 0 16 -25z"/>
<path d="M620 5087 c-36 -13 -97 -40 -137 -61 -57 -30 -70 -41 -66 -57 6 -20
-13 -27 -19 -7 -3 7 -15 3 -36 -12 -17 -13 -29 -27 -26 -32 9 -14 -16 -38 -40
-38 -23 0 -82 -61 -148 -155 -40 -56 -85 -140 -70 -131 6 3 23 -1 38 -9 29
-15 29 -15 -15 -9 -39 6 -44 5 -38 -10 4 -9 3 -15 -2 -12 -9 6 -47 -102 -57
-162 -6 -37 -4 -40 25 -50 17 -6 31 -18 31 -26 0 -25 105 -21 168 5 29 12 50
25 47 29 -7 12 21 31 36 25 14 -5 54 30 174 155 32 34 85 80 117 102 43 30 55
44 46 50 -10 7 -9 8 2 5 25 -7 67 20 74 48 6 25 -23 107 -43 120 -12 7 -3 126
11 142 14 17 17 113 4 113 -6 0 -40 -11 -76 -23z m14 -112 c-25 -38 -30 -22
-8 27 15 35 20 39 22 21 2 -12 -4 -33 -14 -48z m0 -80 c-4 -8 -10 -15 -16 -15
-5 0 -6 -5 -2 -11 8 -13 -176 -2 -190 12 -10 9 74 15 142 10 18 -1 40 3 50 8
22 13 22 13 16 -4z m76 -175 c0 -5 -2 -10 -4 -10 -3 0 -8 5 -11 10 -3 6 -1 10
4 10 6 0 11 -4 11 -10z m-145 -30 c-3 -5 -12 -10 -18 -10 -7 0 -6 4 3 10 19
12 23 12 15 0z m-345 -35 c0 -8 -4 -15 -10 -15 -5 0 -7 7 -4 15 4 8 8 15 10
15 2 0 4 -7 4 -15z m-30 -15 c0 -5 -5 -10 -11 -10 -5 0 -7 5 -4 10 3 6 8 10
11 10 2 0 4 -4 4 -10z m354 -16 c3 -8 2 -12 -4 -9 -6 3 -10 10 -10 16 0 14 7
11 14 -7z m-124 -79 c-15 -19 -9 -28 14 -19 9 3 16 14 16 23 0 10 8 17 20 17
27 0 26 -5 -20 -54 -22 -24 -40 -46 -40 -50 0 -4 -13 -13 -30 -19 -17 -6 -30
-7 -30 -2 0 5 11 14 25 19 31 12 42 37 27 61 -9 14 -8 21 4 34 20 20 32 11 14
-10z m-264 -9 c10 -8 17 -17 14 -19 -3 -3 -16 3 -29 14 -27 22 -15 26 15 5z
m-74 -58 c-9 -9 -15 -9 -24 0 -9 9 -7 12 12 12 19 0 21 -3 12 -12z m-36 -87
c-13 -20 -26 -11 -26 16 0 25 1 26 16 11 9 -9 13 -21 10 -27z m299 30 c3 -5 0
-13 -6 -17 -8 -4 -9 -3 -5 4 10 17 -3 15 -21 -3 -18 -19 -26 -15 -17 9 7 17
39 22 49 7z"/>
<path d="M2132 5056 c7 -8 17 -12 22 -9 4 3 2 9 -5 14 -22 13 -31 11 -17 -5z"/>
<path d="M2457 5038 c-9 -6 -9 -8 1 -8 6 0 12 -7 12 -15 0 -18 -12 -19 -28 -3
-9 9 -12 8 -12 -4 0 -27 11 -48 26 -48 8 0 14 7 14 16 0 13 7 15 30 11 17 -4
30 -2 30 3 0 6 -4 10 -10 10 -5 0 -10 7 -10 15 0 8 9 15 20 15 11 0 20 4 20 9
0 12 -75 10 -93 -1z"/>
<path d="M1685 4990 c3 -5 8 -10 11 -10 2 0 4 5 4 10 0 6 -5 10 -11 10 -5 0
-7 -4 -4 -10z"/>
<path d="M2486 4948 c5 -7 9 -16 9 -20 0 -5 5 -8 10 -8 18 0 10 35 -9 38 -13
3 -16 0 -10 -10z"/>
<path d="M4770 4926 c0 -9 -3 -16 -8 -16 -4 0 -13 -15 -21 -32 -41 -96 -58
-121 -112 -172 -32 -31 -80 -66 -106 -80 -82 -41 -82 -40 -79 -219 2 -87 6
-160 10 -164 6 -6 8 14 10 77 1 30 34 40 52 15 9 -13 10 -23 3 -36 -7 -15 -6
-19 5 -19 8 0 17 -14 21 -31 12 -54 -49 -84 -82 -40 -18 23 24 -124 52 -184
53 -113 79 -192 83 -256 4 -62 2 -68 -26 -100 -38 -43 -34 -73 17 -130 33 -37
38 -40 50 -25 12 14 11 16 -7 16 -24 0 -53 36 -45 56 3 8 11 14 18 14 8 0 28
12 46 27 l32 27 21 -27 c26 -33 37 -34 33 -4 -2 17 3 22 23 22 32 0 111 51
105 67 -11 37 -15 138 -5 138 14 0 31 -46 33 -93 1 -34 4 -37 22 -32 16 6 66
19 193 51 9 3 12 62 12 253 0 240 -1 249 -20 254 -20 5 -29 47 -10 47 6 0 10
7 10 16 0 8 5 12 10 9 46 -29 -53 248 -129 358 -72 105 -211 245 -211 213z
m254 -411 c3 -8 1 -15 -4 -15 -6 0 -10 7 -10 15 0 8 2 15 4 15 2 0 6 -7 10
-15z m-376 -24 c5 -34 -7 -73 -20 -65 -6 4 -24 7 -39 6 -31 -1 -55 28 -45 53
5 15 60 35 86 32 8 -1 16 -13 18 -26z m382 -87 c0 -8 -4 -12 -10 -9 -5 3 -10
10 -10 16 0 5 5 9 10 9 6 0 10 -7 10 -16z m26 -64 c8 0 14 -4 14 -10 0 -17
-47 -11 -54 6 -5 12 -2 15 10 10 8 -3 22 -6 30 -6z m20 -116 c-3 -9 -6 -20 -6
-25 0 -5 -7 -9 -15 -9 -8 0 -15 4 -15 9 0 21 13 41 27 41 10 0 13 -6 9 -16z
m-46 -88 c0 -15 -54 -99 -89 -138 -27 -31 -51 -37 -51 -13 0 8 5 15 10 15 6 0
10 7 10 15 0 7 6 18 14 22 15 9 66 79 66 91 0 13 23 32 32 26 4 -3 8 -11 8
-18z m-162 -209 c4 -20 -25 -34 -39 -20 -14 14 1 45 20 41 9 -2 17 -11 19 -21z"/>
<path d="M4593 4899 c-40 -5 -84 -16 -98 -25 -28 -18 -50 -63 -66 -133 -9 -39
-7 -46 12 -67 13 -13 32 -24 43 -23 18 1 17 2 -4 8 -20 6 -25 13 -25 41 0 32
3 35 39 41 l38 6 -6 -39 c-6 -35 -5 -38 11 -29 34 18 131 128 148 166 17 41
14 66 -7 64 -7 -1 -46 -5 -85 -10z"/>
<path d="M2370 4869 c0 -26 3 -29 14 -20 8 7 12 21 9 31 -8 31 -23 23 -23 -11z"/>
<path d="M1145 4840 c-8 -13 5 -13 25 0 13 8 13 10 -2 10 -9 0 -20 -4 -23 -10z"/>
<path d="M2055 4710 c-4 -7 -1 -16 6 -21 17 -10 26 8 11 23 -6 6 -12 6 -17 -2z"/>
<path d="M2410 4685 c-10 -12 -9 -16 5 -21 23 -9 40 10 22 25 -11 9 -17 8 -27
-4z"/>
<path d="M4040 4619 c-33 -34 -60 -66 -60 -73 1 -31 19 -38 123 -41 58 -2 146
-7 194 -10 73 -6 91 -5 101 8 9 10 10 17 2 22 -5 3 -10 1 -10 -5 0 -14 -113
-4 -142 11 -12 6 -18 6 -18 -1 0 -5 -16 -10 -35 -10 l-35 0 0 60 0 60 35 0
c36 0 39 -4 37 -60 0 -16 1 -18 5 -7 2 9 13 17 24 17 26 0 24 16 -3 24 -23 6
-23 7 -4 21 18 14 16 15 -30 15 -27 1 -60 7 -74 15 -14 8 -30 14 -37 15 -7 0
-39 -28 -73 -61z m60 26 c0 -8 7 -15 16 -15 10 0 14 -6 11 -14 -3 -8 1 -17 9
-20 8 -3 14 -19 14 -41 0 -34 -2 -36 -27 -33 -25 3 -29 8 -34 48 -3 25 -7 50
-9 55 -5 18 0 35 10 35 6 0 10 -7 10 -15z m-22 -78 c-2 -12 -12 -21 -25 -23
-18 -3 -23 1 -23 19 0 30 6 36 31 30 13 -4 19 -12 17 -26z"/>
<path d="M2465 4640 c-3 -5 -1 -10 4 -10 6 0 11 5 11 10 0 6 -2 10 -4 10 -3 0
-8 -4 -11 -10z"/>
<path d="M4300 4625 c-11 -13 -8 -15 19 -15 24 0 31 -4 31 -20 0 -13 7 -20 19
-20 11 0 22 -6 25 -12 3 -7 3 -2 0 12 -4 14 -11 27 -15 28 -5 2 -9 12 -9 23 0
14 -7 19 -29 19 -16 0 -34 -7 -41 -15z"/>
<path d="M617 4576 c-30 -25 -83 -75 -118 -112 -35 -37 -73 -74 -83 -83 -10
-9 -27 -23 -36 -31 -54 -49 -133 -90 -188 -99 -51 -9 -50 -25 3 -46 25 -11 45
-24 45 -30 0 -15 45 -65 59 -65 7 0 9 -4 6 -10 -3 -5 -1 -10 5 -10 17 0 61
-36 53 -44 -3 -3 -2 -6 3 -6 6 0 19 -7 30 -16 10 -8 12 -12 4 -8 -10 5 -12 4
-5 -4 6 -5 19 -12 30 -14 11 -2 20 -10 20 -18 1 -23 31 -13 88 28 60 42 67 50
67 78 0 25 31 40 105 48 28 3 55 12 60 19 6 7 18 16 27 20 10 3 30 24 46 46
16 22 32 38 35 35 3 -3 3 5 0 18 -7 23 -48 62 -68 63 -19 1 -60 18 -96 41 -47
29 -51 55 -29 160 21 100 16 103 -63 40z m-26 -49 c-10 -9 -11 -8 -5 6 3 10 9
15 12 12 3 -3 0 -11 -7 -18z m-338 -284 c-7 -2 -19 -2 -25 0 -7 3 -2 5 12 5
14 0 19 -2 13 -5z m254 -165 c-3 -8 -6 -5 -6 6 -1 11 2 17 5 13 3 -3 4 -12 1
-19z"/>
<path d="M1090 4589 c0 -5 5 -7 10 -4 6 3 10 8 10 11 0 2 -4 4 -10 4 -5 0 -10
-5 -10 -11z"/>
<path d="M2600 4536 c0 -9 5 -16 10 -16 6 0 10 4 10 9 0 6 -4 13 -10 16 -5 3
-10 -1 -10 -9z"/>
<path d="M2645 4530 c3 -5 10 -10 16 -10 5 0 9 5 9 10 0 6 -7 10 -16 10 -8 0
-12 -4 -9 -10z"/>
<path d="M4024 4463 c-26 -18 -36 -56 -29 -109 3 -30 12 -55 18 -55 43 -5 67
-4 67 3 0 4 7 8 15 8 8 0 15 -5 15 -11 0 -14 123 -4 149 11 13 8 13 9 2 10
-13 0 -13 2 -2 13 11 10 14 9 18 -1 4 -10 8 -10 18 -2 8 6 35 15 62 19 43 6
48 9 45 31 -5 45 -38 68 -106 74 -128 12 -261 16 -272 9z m106 -31 c0 -13 2
-13 13 3 10 13 21 16 40 11 24 -6 26 -10 23 -54 -2 -45 -4 -47 -34 -50 -30 -3
-32 -1 -34 30 l-1 33 -4 -32 c-4 -31 -7 -33 -44 -33 l-39 0 0 53 c0 30 2 56 5
58 2 3 20 3 40 1 23 -3 35 -9 35 -20z m203 -2 c5 -4 7 -16 5 -26 -2 -14 -15
-18 -55 -21 l-53 -3 0 36 0 36 48 -7 c26 -4 51 -10 55 -15z m-43 -70 c0 -5 -4
-10 -10 -10 -5 0 -10 5 -10 10 0 6 5 10 10 10 6 0 10 -4 10 -10z"/>
<path d="M861 4361 c-7 -5 -9 -11 -4 -14 5 -3 15 -2 22 2 7 5 9 11 4 14 -5 3
-15 2 -22 -2z"/>
<path d="M4390 4314 c0 -8 5 -12 10 -9 6 4 8 11 5 16 -9 14 -15 11 -15 -7z"/>
<path d="M4301 4306 c-7 -8 -26 -18 -42 -21 -16 -4 -29 -11 -29 -17 0 -6 -9
-8 -22 -4 -26 8 -190 8 -197 0 -3 -3 -1 -8 4 -12 6 -4 11 -18 12 -32 1 -14 9
-50 18 -80 30 -104 45 -205 46 -306 0 -97 1 -104 31 -149 18 -26 52 -60 77
-76 25 -15 65 -39 87 -53 39 -24 44 -25 75 -12 19 8 52 31 74 51 22 21 57 52
79 71 28 24 41 44 46 74 8 46 1 56 -26 35 -10 -8 -24 -15 -30 -15 -6 0 -46 45
-88 101 -63 81 -75 103 -65 115 17 20 23 18 63 -23 34 -36 35 -38 18 -57 -17
-20 -17 -20 10 -3 15 9 29 17 31 17 1 0 20 -23 41 -50 21 -28 41 -49 43 -47 2
3 -6 27 -18 53 -12 27 -25 58 -29 69 -4 11 -19 47 -34 81 -14 33 -32 84 -39
114 -8 29 -17 49 -20 43 -8 -13 -56 -23 -74 -16 -7 3 -13 20 -13 38 0 28 4 33
31 39 18 3 37 2 44 -4 8 -7 10 -2 7 20 -4 30 -22 43 -22 16 0 -16 -53 -31 -71
-21 -6 5 -8 20 -4 41 7 37 4 41 -14 20z m-194 -99 c-2 -20 -8 -32 -17 -32 -19
0 -26 55 -9 66 20 12 29 1 26 -34z m193 -2 c0 -8 -4 -15 -10 -15 -5 0 -10 7
-10 15 0 8 5 15 10 15 6 0 10 -7 10 -15z m20 -194 l20 -29 -64 -51 c-35 -28
-67 -51 -71 -51 -10 0 -44 43 -45 57 0 15 121 114 131 107 5 -2 17 -18 29 -33z
m56 -160 c-10 -16 -36 -13 -43 5 -8 22 18 37 36 20 7 -8 10 -19 7 -25z m-126
-60 c7 -20 32 -61 56 -92 l43 -56 -29 -22 c-16 -11 -31 -21 -34 -21 -3 0 -24
25 -48 56 l-42 56 29 26 c20 17 24 23 10 18 -47 -19 -50 -18 -73 30 -13 25
-22 48 -20 49 2 1 17 9 33 18 28 15 31 15 46 -5 9 -11 22 -37 29 -57z m84 -27
c3 -9 6 -20 6 -25 0 -15 -37 -10 -51 7 -10 13 -10 17 2 25 21 13 36 11 43 -7z"/>
<path d="M4215 3961 c-3 -5 -2 -12 3 -15 5 -3 9 1 9 9 0 17 -3 19 -12 6z"/>
<path d="M1 4209 c-1 -41 2 -48 23 -53 14 -3 31 -3 40 0 12 5 9 11 -15 32 -17
14 -35 35 -39 46 -7 16 -9 10 -9 -25z"/>
<path d="M880 4229 c0 -5 5 -7 10 -4 6 3 10 8 10 11 0 2 -4 4 -10 4 -5 0 -10
-5 -10 -11z"/>
<path d="M873 4180 c-25 -31 -30 -45 -10 -34 6 4 2 -3 -10 -15 -24 -23 -49
-28 -55 -10 -2 6 -29 -5 -62 -25 -32 -19 -64 -32 -72 -29 -21 8 -43 -15 -37
-37 4 -16 1 -20 -18 -18 -16 2 -24 -3 -27 -16 -3 -16 0 -18 24 -12 16 4 33 8
37 9 5 1 14 -6 20 -16 10 -14 9 -20 -3 -27 -9 -6 -16 -6 -18 0 -4 10 -81 -27
-93 -44 -4 -5 -12 -5 -19 -1 -9 5 -11 4 -6 -4 4 -6 13 -10 19 -9 7 1 22 -3 34
-10 19 -10 24 -9 40 11 20 24 94 77 108 77 5 0 18 9 29 19 12 11 35 27 51 35
30 16 30 16 5 16 -23 1 -22 2 9 15 42 19 47 19 31 0 -11 -13 -8 -13 18 -4 28
10 30 13 21 38 -6 18 -6 43 0 72 5 24 9 44 8 45 -1 1 -12 -11 -24 -26z m-19
-95 c-10 -8 -23 -14 -29 -14 -5 -1 1 8 15 19 14 10 27 17 29 14 3 -2 -4 -11
-15 -19z m-174 -75 c0 -5 -4 -10 -10 -10 -5 0 -10 5 -10 10 0 6 5 10 10 10 6
0 10 -4 10 -10z"/>
<path d="M140 4175 c-7 -8 -19 -15 -28 -15 -8 0 -13 -3 -9 -6 9 -9 45 5 51 21
7 19 2 19 -14 0z"/>
<path d="M0 4094 c0 -37 3 -42 33 -52 l32 -11 -33 5 c-31 5 -46 -9 -19 -19 10
-4 10 -6 0 -6 -9 -1 -13 -21 -13 -65 l0 -65 33 6 c23 3 37 0 46 -11 17 -20 7
-33 -12 -17 -23 18 -49 2 -45 -28 2 -21 8 -25 26 -23 15 1 22 -2 19 -10 -2 -7
-18 -12 -35 -12 -30 1 -32 -1 -32 -32 0 -26 6 -37 27 -48 16 -8 42 -26 58 -41
44 -39 143 -87 173 -83 18 2 26 9 27 26 2 25 31 51 57 52 20 0 32 -16 18 -25
-5 -3 -10 -11 -10 -17 0 -16 31 13 41 39 5 13 16 23 25 23 11 0 14 -5 9 -17
-5 -15 -3 -14 13 2 10 11 17 26 14 33 -2 7 0 18 6 25 6 6 12 17 14 22 1 6 17
10 33 10 25 0 31 4 33 26 3 23 0 26 -30 25 -18 -1 -37 -4 -43 -7 -20 -11 -69
-9 -77 3 -14 23 -8 35 22 48 27 11 33 10 53 -6 12 -10 9 -4 -7 14 -20 21 -36
30 -47 27 -12 -4 -20 1 -24 15 -3 11 -12 20 -19 20 -6 0 -31 20 -55 44 -40 41
-42 44 -22 51 23 7 27 20 11 30 -6 4 -9 1 -8 -7 2 -9 -7 -13 -30 -11 -31 1
-49 15 -79 60 -11 16 -12 16 -7 1 4 -10 1 -18 -5 -18 -6 0 -11 -17 -11 -39 0
-23 -6 -44 -15 -51 -10 -9 -14 -22 -10 -39 13 -58 15 -81 9 -81 -12 0 -54 51
-54 66 0 7 -4 14 -10 14 -5 0 -10 -6 -10 -13 0 -7 -9 -13 -20 -14 -25 -2 -26
14 -1 22 30 9 74 83 69 116 -3 17 1 30 9 33 18 7 17 36 -2 36 -8 0 -15 3 -15
8 0 4 -25 7 -55 8 l-55 0 0 -42z m80 -94 c0 -5 -7 -7 -15 -4 -8 4 -15 8 -15
10 0 2 7 4 15 4 8 0 15 -4 15 -10z m47 -182 c-5 -21 -5 -21 7 -5 7 9 19 17 26
17 8 0 10 -6 5 -17 -4 -10 -8 -25 -10 -33 -1 -10 -12 -14 -31 -12 -39 4 -47
14 -35 45 13 34 46 38 38 5z m228 -8 c-3 -10 0 -20 9 -23 9 -4 12 -14 9 -27
-6 -24 -14 -30 -48 -36 -19 -3 -25 0 -25 13 0 23 23 87 34 95 15 11 27 -2 21
-22z m-105 -3 c0 -5 7 -7 15 -4 20 8 27 -7 15 -37 -9 -24 -40 -37 -40 -17 0 5
-10 7 -22 3 -16 -4 -19 -2 -13 9 7 12 6 12 -7 1 -21 -17 -31 -1 -19 32 8 19
17 25 41 24 16 -1 30 -5 30 -11z m200 -52 c0 -9 -10 -20 -22 -25 -14 -5 -17
-9 -8 -10 12 0 11 -3 -3 -11 -9 -5 -22 -7 -27 -4 -14 8 -13 38 2 53 17 17 58
15 58 -3z m-382 -10 c15 -8 49 -18 76 -22 46 -8 79 -33 63 -49 -17 -17 -177
53 -177 78 0 11 9 10 38 -7z m231 -51 c2 -2 -1 -15 -7 -29 -7 -16 -17 -23 -27
-19 -10 4 -15 0 -15 -15 0 -14 -6 -21 -20 -21 -20 0 -28 24 -11 35 5 3 12 19
16 35 6 26 10 29 33 24 15 -4 29 -8 31 -10z m68 -10 c-3 -3 -12 -4 -19 -1 -8
3 -5 6 6 6 11 1 17 -2 13 -5z m-190 -50 c-3 -3 -12 -4 -19 -1 -8 3 -5 6 6 6
11 1 17 -2 13 -5z"/>
<path d="M265 3680 c-3 -5 1 -10 10 -10 9 0 13 5 10 10 -3 6 -8 10 -10 10 -2
0 -7 -4 -10 -10z"/>
<path d="M2340 3999 c0 -5 5 -7 10 -4 6 3 10 8 10 11 0 2 -4 4 -10 4 -5 0 -10
-5 -10 -11z"/>
<path d="M528 3956 c-22 -16 -23 -26 -3 -26 8 0 15 5 15 11 0 5 5 7 10 4 6 -3
15 -3 21 1 8 4 7 9 -2 15 -18 11 -21 11 -41 -5z"/>
<path d="M4385 3940 c10 -11 20 -20 23 -20 3 0 -3 9 -13 20 -10 11 -20 20 -23
20 -3 0 3 -9 13 -20z"/>
<path d="M1703 3913 c-40 -2 -73 -8 -73 -12 0 -5 30 -11 68 -14 57 -5 70 -3
87 14 14 14 15 18 5 17 -8 -1 -48 -4 -87 -5z"/>
<path d="M2066 3892 c-2 -4 -1 -14 4 -22 7 -11 12 -12 21 -3 6 6 8 16 5 22 -8
13 -23 14 -30 3z"/>
<path d="M565 3855 c0 -18 3 -21 13 -13 6 6 12 14 12 18 0 4 -6 10 -12 13 -8
3 -13 -4 -13 -18z"/>
<path d="M1963 3837 c-1 -13 3 -17 13 -13 9 3 22 6 30 6 23 0 8 17 -19 22 -17
3 -23 0 -24 -15z"/>
<path d="M485 3720 c-3 -5 -2 -10 4 -10 5 0 13 5 16 10 3 6 2 10 -4 10 -5 0
-13 -4 -16 -10z"/>
<path d="M5065 3715 c-5 -1 -36 -10 -67 -20 -32 -9 -68 -24 -80 -34 -13 -9
-35 -22 -49 -28 -40 -17 -99 -73 -99 -93 0 -22 -36 -51 -54 -44 -7 3 -20 -4
-30 -15 -17 -19 -17 -21 8 -54 14 -19 26 -40 26 -48 0 -40 64 -78 103 -63 8 3
22 41 32 90 17 80 29 101 41 70 3 -7 -2 -43 -10 -80 -22 -93 -22 -94 27 -106
23 -6 69 -24 102 -40 33 -17 70 -30 83 -30 l22 0 0 250 0 250 -22 -1 c-13 0
-27 -2 -33 -4z m-157 -151 c-4 -25 -32 -24 -36 0 -4 21 18 40 31 27 5 -5 7
-17 5 -27z"/>
<path d="M0 3644 c0 -22 4 -25 20 -21 14 3 30 -3 47 -19 14 -13 32 -24 39 -24
18 0 65 -45 56 -55 -4 -4 4 -2 17 5 27 14 24 18 -49 56 -30 16 -57 31 -60 34
-3 3 -20 15 -37 28 l-33 23 0 -27z"/>
<path d="M3991 3591 c-25 -18 -54 -42 -65 -52 -11 -10 -28 -21 -38 -25 -21 -6
-24 -20 -5 -26 17 -7 38 2 32 13 -4 5 1 6 9 3 9 -3 16 -9 16 -13 0 -11 64 -11
71 0 5 8 13 8 28 0 14 -8 64 -11 137 -9 112 3 117 2 135 -21 12 -14 17 -31 14
-42 -5 -16 -1 -19 29 -19 20 0 36 4 36 9 0 5 -22 26 -50 46 -27 20 -50 41 -50
45 0 5 -38 32 -85 60 -46 28 -87 55 -90 61 -13 20 -79 5 -124 -30z m98 -13
c14 -16 22 -28 18 -28 -10 0 -47 42 -47 54 0 5 1 7 3 5 1 -2 13 -16 26 -31z"/>
<path d="M1 3543 c0 -21 3 -32 6 -25 7 18 23 15 23 -5 0 -14 4 -12 25 7 24 23
25 23 45 5 14 -13 24 -15 31 -8 13 13 -37 47 -58 39 -8 -3 -21 1 -29 9 -27 27
-44 18 -43 -22z"/>
<path d="M4422 3535 c-18 -15 -32 -36 -32 -47 0 -11 23 -41 52 -68 l53 -49 47
47 c27 26 48 52 48 57 0 21 -69 76 -102 81 -27 5 -41 1 -66 -21z"/>
<path d="M3460 3520 l-95 -16 80 -8 c44 -4 133 -6 198 -4 100 2 116 4 101 15
-49 36 -133 40 -284 13z"/>
<path d="M1380 3490 c20 -13 43 -13 35 0 -3 6 -16 10 -28 10 -18 0 -19 -2 -7
-10z"/>
<path d="M3266 3493 c-1 -1 -62 -4 -136 -6 -101 -3 -143 -8 -167 -21 l-33 -16
50 -64 c28 -35 57 -67 65 -70 8 -3 15 -12 15 -21 0 -13 12 -19 33 -16 8 1 8 1
13 -43 1 -15 11 -34 21 -42 10 -8 13 -13 6 -14 -9 0 -10 -7 -4 -23 5 -13 4
-47 -5 -86 -12 -62 -12 -65 11 -95 13 -17 28 -43 34 -59 8 -20 17 -27 36 -27
30 0 43 24 24 46 -10 12 -10 17 -1 23 16 9 13 451 -3 451 -6 0 -6 3 1 8 6 4
13 15 17 24 3 9 22 20 41 24 20 3 34 10 31 14 -3 5 1 11 7 13 7 3 -2 4 -20 4
-19 -1 -35 -3 -36 -4z"/>
<path d="M4620 3470 c0 -5 5 -10 11 -10 5 0 7 5 4 10 -3 6 -8 10 -11 10 -2 0
-4 -4 -4 -10z"/>
<path d="M230 3436 c-5 -14 -20 -30 -33 -35 -12 -5 -29 -16 -36 -25 -7 -9 -20
-16 -28 -16 -8 0 -19 -13 -24 -30 -6 -16 -15 -30 -20 -30 -5 0 -9 -6 -9 -12 0
-7 -18 -23 -40 -36 -24 -14 -40 -30 -40 -41 0 -15 15 -6 62 37 133 122 198
195 185 209 -4 3 -11 -6 -17 -21z"/>
<path d="M4584 3387 c-24 -24 -41 -47 -37 -50 11 -12 143 -8 143 4 0 16 -44
89 -54 89 -4 0 -28 -20 -52 -43z"/>
<path d="M1846 3391 c5 -6 27 -17 49 -26 l40 -16 -29 25 c-27 24 -83 39 -60
17z"/>
<path d="M4311 3293 c0 -38 4 -90 8 -118 6 -32 5 -52 -2 -56 -5 -4 -8 -13 -5
-20 4 -11 -9 -14 -63 -13 l-69 2 6 -27 c11 -45 50 -125 76 -152 31 -33 92 -72
137 -87 19 -7 50 -24 70 -39 20 -15 30 -19 22 -10 -8 10 -11 20 -8 23 3 3 10
-4 17 -15 6 -12 9 -21 6 -21 -3 0 7 -26 21 -57 21 -46 26 -71 25 -128 -1 -42
7 -100 19 -145 17 -66 22 -130 17 -220 -1 -14 4 -50 10 -80 19 -88 20 -117 7
-182 -12 -53 -11 -69 2 -108 8 -25 20 -51 25 -57 11 -14 66 -17 84 -5 17 11
101 144 128 201 13 28 27 56 33 63 18 25 53 121 53 147 -1 48 -35 125 -85 190
-47 62 -85 159 -85 219 0 39 -146 242 -168 234 -7 -2 -10 2 -6 12 6 15 -57
131 -75 138 -4 2 -24 39 -43 83 -40 90 -48 162 -23 209 8 15 15 34 15 41 0 13
-88 45 -126 45 -23 0 -24 -3 -23 -67z m-1 -263 c19 -6 59 -12 89 -15 58 -4 67
-8 56 -26 -8 -11 -14 -11 -169 9 -36 5 -50 12 -52 25 -3 20 23 22 76 7z m205
-130 c3 -5 2 -10 -4 -10 -5 0 -13 5 -16 10 -3 6 -2 10 4 10 5 0 13 -4 16 -10z
m-75 -46 c0 -2 -7 -4 -15 -4 -8 0 -15 4 -15 10 0 5 7 7 15 4 8 -4 15 -8 15
-10z m178 -52 c6 -18 -15 -14 -22 4 -4 10 -1 14 6 12 6 -2 14 -10 16 -16z
m-32 -103 c3 -6 1 -14 -5 -18 -9 -6 -9 -15 -1 -35 5 -15 10 -35 10 -44 -1 -15
-2 -15 -15 2 -8 10 -13 34 -11 52 1 20 -3 39 -11 45 -7 7 -13 16 -13 21 0 11
36 -7 46 -23z m82 19 c15 -15 15 -28 1 -28 -11 0 -39 24 -39 34 0 11 26 6 38
-6z m27 -48 c3 -5 -1 -10 -9 -10 -9 0 -16 5 -16 10 0 6 4 10 9 10 6 0 13 -4
16 -10z m15 -39 c0 -18 -18 -21 -30 -6 -10 13 -9 15 9 15 11 0 21 -4 21 -9z
m-104 -83 c-3 -13 -6 -36 -6 -51 0 -16 -4 -26 -10 -22 -13 8 -13 62 0 70 6 4
8 11 5 16 -4 5 -1 9 6 9 7 0 9 -9 5 -22z m86 -29 c-9 -45 2 -99 19 -99 5 0 9
-4 9 -10 0 -21 -19 -9 -34 22 -19 37 -20 77 -4 113 16 35 19 26 10 -26z m-53
-144 l0 -20 -9 20 c-5 11 -9 27 -9 35 -1 13 0 13 9 0 5 -8 9 -24 9 -35z m121
-55 c0 -5 -4 -10 -10 -10 -5 0 -10 5 -10 10 0 6 5 10 10 10 6 0 10 -4 10 -10z"/>
<path d="M32 3298 c-19 -19 -14 -29 8 -16 20 13 27 28 12 28 -4 0 -13 -5 -20
-12z"/>
<path d="M1869 3308 c-1 -2 -2 -28 -4 -59 -2 -51 -1 -56 16 -52 22 6 26 -12 4
-21 -17 -6 -21 -66 -5 -66 6 0 10 -4 10 -10 0 -5 -7 -10 -15 -10 -19 0 -9
-118 13 -142 11 -14 12 -18 2 -18 -9 0 -8 -6 5 -20 10 -11 13 -20 7 -20 -14 0
-16 -36 -3 -44 6 -4 5 -19 -1 -39 -6 -17 -13 -38 -14 -45 -6 -21 -68 -42 -132
-44 -33 -2 -58 -6 -55 -10 2 -5 -2 -9 -9 -10 -7 0 16 -4 52 -8 111 -13 228 -3
292 23 70 28 151 84 143 97 -3 6 -2 10 3 10 11 0 10 49 -1 68 -5 7 -3 12 4 12
8 0 9 4 0 13 -6 8 -7 17 -2 23 17 17 18 118 1 137 -16 19 -56 24 -44 5 5 -8 0
-9 -17 -4 -13 4 -37 11 -53 15 -21 4 -32 15 -39 36 -6 17 -14 33 -20 36 -5 4
-6 12 -3 18 12 19 -39 13 -66 -8 l-24 -19 4 41 c10 107 9 112 -20 115 -16 2
-28 2 -29 0z m101 -228 c0 -5 -7 -10 -15 -10 -8 0 -15 5 -15 10 0 6 7 10 15
10 8 0 15 -4 15 -10z"/>
<path d="M4504 3280 c-24 -58 -19 -154 11 -190 6 -8 15 -22 19 -30 13 -30 195
-310 201 -310 1 0 -4 19 -12 43 -16 47 -16 51 35 252 45 177 46 220 5 236 -16
6 -79 12 -140 13 -93 1 -114 -1 -119 -14z m266 -133 c-1 -13 -35 -57 -45 -57
-3 0 -11 -5 -18 -10 -31 -26 -89 -60 -103 -60 -26 0 -10 24 31 45 21 11 57 39
79 61 39 40 56 46 56 21z"/>
<path d="M4862 3236 c-21 -22 -102 -325 -104 -387 -2 -73 35 -172 108 -285 59
-91 152 -266 185 -349 9 -22 43 -133 56 -180 5 -17 9 115 11 314 1 223 -1 348
-8 355 -5 5 -10 15 -10 20 0 6 5 4 10 -4 7 -11 10 0 10 37 0 30 -5 53 -11 55
-9 3 -9 9 0 25 7 14 11 81 11 181 l0 160 -42 7 c-24 4 -63 18 -87 32 -68 40
-106 45 -129 19z m248 -325 c0 -15 -13 -21 -26 -10 -11 9 -15 7 -19 -5 -3 -9
-7 -23 -10 -32 -5 -14 -3 -15 10 -4 13 10 15 9 15 -9 0 -27 -27 -38 -46 -19
-13 13 -13 19 3 54 10 21 22 42 27 46 11 7 46 -8 46 -21z"/>
<path d="M1200 3151 c-13 -26 -13 -54 2 -69 17 -17 247 -16 271 2 20 15 23 56
5 74 -8 8 -54 12 -140 12 -116 0 -128 -2 -138 -19z"/>
<path d="M2587 3093 c-11 -10 -8 -35 3 -28 6 3 10 2 10 -4 0 -5 -6 -11 -12
-14 -7 -2 -10 -8 -6 -12 14 -15 38 16 28 35 -5 9 -6 20 -3 24 3 3 2 6 -4 6 -5
0 -13 -3 -16 -7z"/>
<path d="M2660 3089 c0 -6 -8 -8 -19 -4 -15 4 -18 1 -14 -19 4 -17 10 -23 20
-19 11 4 14 0 11 -13 -2 -12 -11 -18 -23 -16 -12 1 -26 -7 -33 -19 -12 -19
-12 -20 8 -14 18 6 21 3 18 -12 -2 -10 -11 -18 -20 -18 -20 0 -37 -15 -17 -15
10 0 11 -2 2 -8 -11 -7 -14 -51 -12 -145 0 -12 14 -24 37 -34 33 -14 37 -14
49 3 14 19 15 27 17 127 1 40 -3 67 -9 67 -5 0 -4 4 4 9 7 5 10 14 7 20 -4 6
-3 11 2 11 11 0 13 48 2 55 -5 3 -6 13 -3 24 3 11 -2 21 -11 24 -9 4 -16 2
-16 -4z"/>
<path d="M3877 3073 c-45 -24 -47 -26 -30 -42 10 -9 30 -22 46 -28 15 -7 27
-18 27 -25 0 -24 36 -37 92 -32 48 4 57 2 78 -21 26 -28 50 -33 50 -11 0 28
23 28 46 0 13 -16 23 -34 24 -41 0 -6 9 -15 20 -18 11 -3 20 -12 20 -20 0 -7
8 -15 18 -19 104 -35 132 -43 136 -38 3 3 -24 20 -61 38 -37 19 -80 46 -96 62
-31 29 -109 177 -99 187 13 12 -22 23 -43 13 -17 -7 -30 -6 -53 6 -46 24 -118
20 -175 -11z"/>
<path d="M3790 3080 c0 -5 5 -10 10 -10 6 0 10 5 10 10 0 6 -4 10 -10 10 -5 0
-10 -4 -10 -10z"/>
<path d="M3670 3051 c13 -9 13 -11 -2 -11 -10 0 -18 -4 -18 -10 0 -5 4 -10 9
-10 16 0 71 -51 71 -65 0 -15 -38 -31 -48 -21 -3 4 -1 11 6 18 8 8 5 15 -15
25 -33 17 -43 16 -20 -1 12 -9 14 -16 8 -21 -16 -9 -13 -35 4 -35 10 0 14 -7
11 -22 -3 -13 -5 -23 -6 -23 -2 0 -4 -31 -5 -68 -2 -38 -5 -71 -9 -74 -3 -3
-1 -14 5 -24 5 -11 6 -19 1 -19 -15 0 -8 -88 8 -104 12 -11 36 -12 140 -5 69
5 163 16 210 24 47 8 99 15 115 15 41 0 308 -59 320 -71 5 -5 14 -9 21 -9 12
0 12 14 -6 110 -10 52 0 78 13 35 9 -33 20 -187 11 -167 -3 6 -10 12 -16 12
-6 0 -3 -9 8 -21 10 -11 19 -28 19 -37 3 -45 6 -53 15 -47 5 3 7 0 4 -9 -7
-18 14 -86 27 -86 14 0 11 29 -14 106 -17 54 -21 85 -17 130 4 44 0 72 -15
111 -18 48 -22 51 -52 50 -21 -1 -35 -8 -39 -19 -5 -15 -7 -15 -25 3 -14 14
-24 17 -36 10 -11 -5 -26 -5 -42 2 -32 13 -81 67 -81 87 0 17 -49 50 -73 50
-8 0 -20 6 -26 14 -7 8 -26 18 -42 21 -16 4 -29 13 -29 21 0 8 -5 14 -11 14
-5 0 -7 -4 -4 -10 3 -5 -4 -10 -16 -10 -18 0 -19 -2 -9 -15 10 -12 10 -15 -1
-15 -11 0 -11 -3 1 -11 11 -7 6 -8 -20 -3 -44 8 -50 12 -50 29 0 8 -13 21 -30
30 -16 9 -30 22 -30 29 0 8 -16 23 -35 35 -19 11 -35 25 -35 31 0 5 -7 10 -15
10 -8 0 -15 4 -15 9 0 6 -8 9 -17 9 -10 0 -40 2 -68 6 -36 5 -46 4 -35 -3z
m102 -53 c7 -15 4 -18 -17 -18 -17 0 -25 5 -25 18 0 24 23 48 29 30 2 -7 8
-21 13 -30z m358 -159 c0 -6 -4 -7 -10 -4 -5 3 -10 11 -10 16 0 6 5 7 10 4 6
-3 10 -11 10 -16z m-50 -9 c-8 -5 -19 -10 -25 -10 -5 0 -3 5 5 10 8 5 20 10
25 10 6 0 3 -5 -5 -10z m-205 -20 c3 -5 1 -10 -4 -10 -6 0 -11 5 -11 10 0 6 2
10 4 10 3 0 8 -4 11 -10z m181 -15 c25 -19 14 -19 -22 0 -16 8 -22 15 -13 15
8 0 24 -7 35 -15z m139 -15 c3 -5 2 -10 -4 -10 -5 0 -13 5 -16 10 -3 6 -2 10
4 10 5 0 13 -4 16 -10z m65 -60 c0 -14 -28 -1 -34 16 -4 12 -2 12 14 4 11 -6
20 -15 20 -20z m-195 -78 c-3 -3 -11 0 -18 7 -9 10 -8 11 6 5 10 -3 15 -9 12
-12z m-270 -30 c-3 -3 -11 0 -18 7 -9 10 -8 11 6 5 10 -3 15 -9 12 -12z"/>
<path d="M3110 2828 c0 -4 3 -8 8 -9 4 0 30 -2 57 -4 43 -4 47 -3 25 7 -31 14
-90 18 -90 6z"/>
<path d="M3119 2786 c7 -8 8 -16 4 -19 -9 -6 -9 -59 0 -73 3 -6 2 -16 -3 -23
-4 -8 -4 -26 0 -41 5 -18 4 -32 -3 -40 -9 -8 -7 -9 8 -4 11 4 25 11 30 15 6 4
28 11 50 15 22 4 35 9 29 11 -8 3 -10 25 -7 64 4 67 -6 89 -43 89 -12 0 -26 5
-29 10 -3 6 -15 10 -27 10 -16 0 -18 -3 -9 -14z m31 -140 c0 -3 -4 -8 -10 -11
-5 -3 -10 -1 -10 4 0 6 5 11 10 11 6 0 10 -2 10 -4z"/>
<path d="M4285 2770 c-7 -12 18 -24 37 -18 8 3 5 9 -9 16 -14 8 -24 9 -28 2z"/>
<path d="M4420 2772 c0 -10 21 -32 32 -32 16 0 8 19 -12 30 -11 6 -20 7 -20 2z"/>
<path d="M2138 2720 c-95 -60 -158 -75 -313 -75 l-140 0 2 -25 c6 -64 14 -114
20 -124 9 -14 13 -32 17 -73 2 -18 8 -39 15 -46 6 -8 8 -17 4 -21 -4 -4 -1
-11 7 -16 10 -7 11 -10 3 -10 -19 0 -16 -27 3 -34 10 -4 14 -14 11 -26 -8 -29
-1 -24 17 12 19 38 19 36 0 40 -13 3 -13 5 0 23 15 20 15 20 16 -2 0 -13 6
-23 14 -23 13 0 30 34 27 53 -1 5 4 27 11 50 6 23 11 48 9 55 -1 6 3 12 9 12
12 0 12 -6 1 -67 -5 -26 -12 -65 -16 -86 -4 -28 -13 -40 -31 -47 -29 -11 -30
-20 -6 -46 9 -10 17 -24 17 -31 0 -16 64 -63 84 -63 12 1 10 5 -6 19 -13 11
-23 22 -23 25 0 13 20 5 48 -19 39 -32 60 -32 100 4 21 20 32 25 32 15 0 -19
44 -18 61 2 10 13 10 17 -2 24 -12 8 -72 5 -106 -6 -20 -6 -15 4 18 37 23 22
34 28 42 20 8 -8 8 -11 -1 -11 -7 0 -12 -4 -12 -10 0 -5 6 -10 14 -10 14 0 29
34 27 61 -1 9 19 40 44 70 l45 53 -4 151 c-4 129 -6 176 -10 175 -1 0 -22 -14
-48 -30z m-230 -122 c-2 -12 -9 -24 -17 -26 -10 -3 -12 1 -9 16 3 12 1 23 -6
26 -6 2 -1 5 12 5 18 1 23 -4 20 -21z m-28 -57 c0 -17 -12 -41 -21 -41 -10 0
-12 33 -2 43 9 10 23 9 23 -2z m-30 -60 c0 -17 -12 -41 -21 -41 -5 0 -8 11 -7
25 2 23 28 37 28 16z m-29 -94 c-8 -8 -11 -5 -11 9 0 27 14 41 18 19 2 -9 -1
-22 -7 -28z"/>
<path d="M1196 2683 c-3 -10 -2 -38 3 -63 5 -25 9 -36 10 -24 1 11 5 24 10 30
5 5 11 22 13 39 2 21 -2 31 -14 33 -9 2 -19 -5 -22 -15z"/>
<path d="M2605 2683 c2 -7 -1 -13 -7 -13 -7 0 -8 -13 -5 -37 5 -26 3 -33 -3
-23 -8 12 -10 11 -10 -7 0 -13 6 -23 14 -23 9 0 12 -8 8 -25 -2 -14 -9 -25
-14 -25 -6 0 -8 -16 -6 -37 3 -21 2 -47 -2 -58 -4 -11 -4 -46 -1 -78 4 -31 4
-62 0 -69 -4 -6 -4 -21 1 -32 4 -11 4 -33 0 -48 -5 -14 -5 -29 -2 -33 4 -4 7
-23 7 -43 0 -34 3 -37 59 -61 54 -23 59 -24 71 -8 19 26 19 122 0 141 -9 9
-12 16 -6 16 18 0 14 90 -4 96 -12 5 -13 10 -4 20 9 11 8 14 -4 14 -9 0 -21 9
-27 19 -16 30 -12 35 15 17 28 -18 34 -6 9 18 -8 9 -11 16 -5 16 6 0 11 9 11
20 0 14 -5 18 -17 14 -13 -4 -14 -3 -6 3 7 5 15 24 17 41 2 18 6 35 9 38 3 3
1 20 -5 37 -5 18 -10 45 -12 62 -1 24 -7 31 -31 36 -17 4 -22 7 -13 8 9 0 20
6 23 11 4 6 -8 9 -29 8 -24 -2 -35 -7 -31 -15z m20 -184 c8 -23 1 -34 -14 -24
-13 8 -15 45 -2 45 5 0 13 -9 16 -21z m38 -70 c4 -15 2 -19 -10 -15 -8 3 -17
6 -19 6 -2 0 -4 7 -4 15 0 23 27 18 33 -6z"/>
<path d="M1250 2612 c-14 -46 -12 -56 14 -46 17 6 19 23 7 64 -7 23 -9 22 -21
-18z"/>
<path d="M3165 2567 l-50 -24 0 -141 c0 -78 2 -142 6 -142 3 0 10 5 17 12 6 6
14 9 17 6 8 -8 -16 -112 -29 -121 -8 -6 -8 -10 2 -14 6 -2 10 -9 7 -14 -3 -5
-8 -53 -10 -106 -2 -54 -6 -106 -10 -115 -4 -9 -2 -26 4 -37 10 -17 9 -20 -4
-15 -11 5 -13 2 -9 -10 4 -11 -7 -29 -36 -55 -37 -34 -41 -41 -31 -60 7 -12
16 -19 20 -17 4 3 13 -6 20 -20 6 -15 7 -23 1 -19 -15 9 -12 -3 9 -33 101
-149 121 -204 121 -345 0 -45 7 -107 15 -137 16 -61 12 -109 -14 -155 -25 -44
-89 -212 -100 -265 -6 -25 -17 -63 -26 -85 -28 -67 -46 -109 -55 -125 -4 -9
-11 -30 -15 -48 -19 -90 -281 -370 -424 -454 l-46 -28 123 0 c80 0 121 4 117
10 -3 6 1 10 10 10 9 0 13 -4 10 -10 -4 -6 7 -10 25 -10 l32 0 -35 35 c-38 38
-39 53 -5 74 16 10 22 10 28 1 4 -6 18 -17 31 -24 13 -7 23 -19 23 -28 -1 -10
4 -14 12 -11 22 8 47 -17 33 -33 -10 -12 7 -14 100 -14 106 0 111 1 111 21 0
15 5 20 23 17 14 -2 21 -9 19 -20 -3 -17 26 -18 462 -18 438 0 465 1 460 18
-5 15 -4 15 5 1 15 -24 227 -26 314 -3 79 20 207 80 286 133 106 72 234 213
290 318 11 22 8 25 -46 50 -32 14 -79 43 -105 65 -26 21 -55 38 -65 38 -13 0
-14 3 -5 8 9 6 4 16 -19 38 -17 16 -37 45 -45 64 -27 65 -98 180 -110 180 -7
0 -16 9 -19 20 -4 13 -14 20 -24 18 -21 -4 -84 66 -133 146 -18 31 -39 56 -47
56 -8 0 -11 6 -7 16 3 9 -9 43 -29 78 -19 35 -35 70 -35 80 0 22 -37 99 -60
123 -21 23 -40 83 -40 128 -1 26 -2 28 -11 11 -6 -10 -9 -38 -6 -61 3 -34 1
-42 -10 -38 -8 3 -11 13 -8 24 3 10 3 34 -1 54 -5 29 -13 39 -43 52 -42 18
-151 19 -184 2 -16 -9 -22 -9 -25 0 -7 20 -22 12 -22 -11 0 -30 36 -88 54 -88
7 0 18 -12 24 -27 22 -61 25 -69 27 -88 1 -11 -5 -25 -14 -32 -13 -9 -14 -17
-5 -40 8 -22 8 -32 -2 -41 -18 -17 -24 -15 -24 6 0 10 -5 23 -11 29 -7 7 -13
24 -15 40 -10 100 -15 117 -41 151 -15 20 -26 45 -25 54 3 14 -4 18 -35 20
-21 0 -47 0 -58 0 -16 -2 -17 0 -5 7 8 6 12 13 8 16 -16 17 -283 20 -324 5
-32 -13 -37 -12 -29 0 4 6 -12 10 -39 10 -39 0 -46 -3 -46 -20 0 -11 5 -29 12
-40 10 -16 9 -26 -9 -57 -34 -61 -38 -114 -12 -146 24 -31 21 -42 -9 -33 -12
4 -22 19 -26 38 -8 43 -8 78 2 78 5 0 14 22 21 48 10 42 10 55 -4 90 -13 33
-22 41 -39 40 -25 -2 -102 42 -89 51 5 3 9 47 10 96 1 50 3 90 4 90 2 0 8 133
12 283 l3 123 -28 6 c-15 3 -32 11 -39 19 -6 7 -17 10 -25 7 -19 -7 -18 11 1
27 11 9 19 10 26 3 14 -14 46 -5 54 15 3 10 9 68 12 130 6 127 7 125 -72 89z
m-20 -27 c-3 -5 -12 -10 -18 -10 -7 0 -6 4 3 10 19 12 23 12 15 0z m85 -284
c0 -2 -7 -20 -15 -39 -8 -20 -15 -39 -15 -42 0 -3 7 -5 15 -5 8 0 15 -5 15
-11 0 -6 -12 -9 -27 -7 -23 2 -28 7 -25 28 4 37 25 80 39 80 7 0 13 -2 13 -4z
m-13 -167 c12 -12 7 -39 -8 -39 -5 0 -9 8 -10 18 0 9 -3 12 -5 5 -3 -7 -1 -20
4 -30 14 -23 -3 -53 -29 -53 -24 0 -36 27 -20 43 9 9 14 8 21 -3 13 -21 12 -3
-1 21 -18 34 21 65 48 38z m648 -549 c3 -5 1 -10 -4 -10 -6 0 -11 5 -11 10 0
6 2 10 4 10 3 0 8 -4 11 -10z m16 -56 c23 -25 23 -26 2 -13 -13 7 -25 19 -27
26 -8 19 -2 16 25 -13z m49 -94 c0 -11 -4 -20 -9 -20 -5 0 -7 9 -4 20 3 11 7
20 9 20 2 0 4 -9 4 -20z m-451 -49 c9 -6 -2 -10 -35 -13 -55 -5 -59 -4 -49 11
8 13 64 14 84 2z m-232 -33 c-3 -8 -6 -5 -6 6 -1 11 2 17 5 13 3 -3 4 -12 1
-19z m947 -5 c7 -17 -9 -33 -31 -33 -17 0 -16 -1 8 -90 37 -135 48 -183 44
-191 -3 -4 -19 -12 -36 -18 -29 -10 -33 -8 -102 57 -114 107 -141 131 -143
129 -2 -1 9 -44 23 -94 26 -92 27 -93 57 -90 25 2 31 -2 31 -18 0 -16 -14 -24
-75 -41 -41 -12 -78 -20 -82 -17 -16 9 -7 42 12 48 11 3 20 10 20 15 0 6 -34
130 -56 203 -4 14 -13 18 -30 14 -36 -6 -54 29 -22 42 57 23 123 39 134 33 7
-4 41 -34 76 -67 80 -76 124 -114 114 -98 -4 7 -9 21 -11 30 -16 64 -32 113
-38 120 -4 4 -20 7 -35 8 -20 0 -27 5 -27 19 0 15 14 23 60 36 79 23 101 24
109 3z m-644 -86 c0 -5 -10 -26 -22 -46 -21 -33 -23 -34 -26 -13 -2 13 2 30 8
37 7 8 9 22 6 31 -10 26 5 40 21 19 7 -11 13 -23 13 -28z m517 -29 c-3 -7 -5
-2 -5 12 0 14 2 19 5 13 2 -7 2 -19 0 -25z m300 -63 c-7 -16 -37 -21 -37 -5 0
10 32 31 39 25 2 -2 1 -11 -2 -20z m-759 -65 c7 0 24 -24 37 -54 13 -30 30
-56 37 -59 10 -4 11 -6 0 -6 -19 -1 -62 45 -62 68 0 14 -13 24 -44 36 -49 19
-89 51 -81 65 3 5 27 -4 52 -20 26 -17 53 -30 61 -30z m722 21 c0 -13 -29 -35
-37 -28 -7 8 15 37 28 37 5 0 9 -4 9 -9z m-50 -44 c0 -7 -9 -18 -20 -25 -17
-11 -20 -10 -20 7 0 17 11 28 33 30 4 1 7 -5 7 -12z m-1017 -17 c-3 -11 -12
-20 -19 -20 -20 0 -17 28 4 33 9 3 18 5 19 6 0 0 -1 -8 -4 -19z m36 -54 c9
-11 9 -16 0 -21 -10 -7 -28 10 -29 28 0 12 17 8 29 -7z m426 -6 c3 -5 -1 -10
-10 -10 -9 0 -13 5 -10 10 3 6 8 10 10 10 2 0 7 -4 10 -10z m645 -65 c0 -17
-28 19 -35 45 -6 23 -5 23 14 -5 12 -16 21 -34 21 -40z m-200 45 c0 -13 -28
-25 -38 -16 -3 4 0 11 8 16 20 13 30 12 30 0z m-823 -46 c-9 -10 -38 16 -31
28 4 6 13 4 22 -6 9 -8 13 -19 9 -22z m773 17 c0 -5 -7 -14 -15 -21 -18 -15
-42 1 -31 19 8 13 46 15 46 2z m464 -25 c-6 -16 -8 -17 -16 -2 -11 19 0 42 13
29 6 -6 7 -18 3 -27z m-1180 -22 c4 -11 1 -14 -11 -12 -9 2 -18 9 -21 16 -6
18 25 15 32 -4z m642 -3 c-10 -11 -24 -17 -32 -14 -29 11 -13 33 24 33 24 0
24 -1 8 -19z m-66 -10 c0 -10 -30 -24 -37 -17 -3 3 -2 9 2 15 8 13 35 15 35 2z
m128 -18 c5 -18 -10 -16 -34 2 -18 15 -18 15 5 13 14 -2 26 -9 29 -15z m462
-3 c0 -11 -7 -20 -15 -20 -18 0 -19 12 -3 28 16 16 18 15 18 -8z m-649 -5 c0
-13 -41 -19 -41 -7 0 11 20 22 33 18 5 -1 8 -6 8 -11z m-466 -4 c10 -17 -12
-21 -25 -6 -10 12 -10 15 3 15 9 0 18 -4 22 -9z m725 -11 c0 -5 -9 -10 -19
-10 -11 0 -23 5 -26 10 -4 6 5 10 19 10 14 0 26 -4 26 -10z m-329 -15 c0 -6
-10 -12 -23 -13 -19 -4 -20 -2 -9 12 15 17 33 18 32 1z m-333 -13 c3 -9 -2
-13 -14 -10 -9 1 -19 9 -22 16 -3 9 2 13 14 10 9 -1 19 -9 22 -16z m715 3 c9
-23 -9 -26 -28 -5 -17 19 -17 20 2 20 12 0 23 -7 26 -15z m313 -30 c-7 -18
-26 -20 -26 -2 0 18 24 41 28 27 2 -6 1 -17 -2 -25z m-972 19 c23 -9 20 -24
-4 -24 -11 0 -20 7 -20 15 0 17 2 18 24 9z m224 -6 c-5 -15 -48 -24 -48 -10 0
14 12 22 33 22 10 0 17 -5 15 -12z m-138 -18 c0 -5 -9 -10 -19 -10 -11 0 -23
5 -26 10 -4 6 5 10 19 10 14 0 26 -4 26 -10z m65 0 c-3 -5 -15 -10 -26 -10
-10 0 -19 5 -19 10 0 6 12 10 26 10 14 0 23 -4 19 -10z m563 -21 c4 -24 3 -24
-12 -4 -19 24 -20 38 -3 33 6 -3 13 -15 15 -29z m232 -29 c0 -11 -7 -20 -15
-20 -18 0 -19 12 -3 28 16 16 18 15 18 -8z m-192 -13 c2 -10 -3 -17 -12 -17
-10 0 -16 9 -16 21 0 24 23 21 28 -4z m168 -62 c-7 -18 -26 -20 -26 -2 0 18
24 41 28 27 2 -6 1 -17 -2 -25z m-133 3 c8 -30 -2 -37 -19 -14 -18 25 -18 36
0 36 7 0 16 -10 19 -22z m-137 -32 c8 -8 23 -12 35 -9 15 4 20 2 17 -8 -2 -7
-21 -14 -44 -16 -46 -3 -84 -21 -84 -40 0 -8 -12 -13 -31 -13 -24 0 -30 -4
-25 -15 4 -13 -2 -15 -30 -13 -27 2 -41 -3 -53 -19 -14 -17 -20 -18 -34 -9
-17 13 -13 61 4 50 10 -6 90 56 84 65 -2 4 9 8 25 9 24 2 27 -1 23 -18 -4 -16
-2 -19 11 -14 11 4 15 13 11 25 -5 16 -1 19 24 19 16 0 33 5 36 10 8 13 14 13
31 -4z m554 -5 c0 -10 -30 -24 -37 -17 -3 3 -2 9 2 15 8 13 35 15 35 2z m-385
-22 c8 -23 1 -34 -14 -24 -13 8 -15 45 -2 45 5 0 13 -9 16 -21z m83 4 c-2 -10
-11 -19 -21 -21 -16 -3 -17 -1 -7 17 13 25 33 28 28 4z m240 -25 c-3 -7 -13
-15 -24 -17 -16 -3 -17 -1 -5 13 16 19 34 21 29 4z m-763 -28 c-12 -13 -14
-20 -5 -20 10 0 10 -3 0 -15 -7 -8 -17 -15 -22 -15 -6 0 -5 7 2 15 10 12 10
15 -1 15 -9 1 -5 8 10 20 30 26 39 26 16 0z m469 -1 c13 20 27 1 16 -20 -14
-25 -36 -25 -43 0 -6 23 3 36 14 20 5 -8 8 -8 13 0z m245 -13 c-11 -10 -49
-16 -49 -8 0 13 44 31 49 20 1 -5 1 -11 0 -12z m-828 -9 c-6 -8 -9 -17 -6 -21
3 -3 -1 -1 -7 4 -10 9 -10 13 2 20 21 13 24 12 11 -3z m756 -34 c-9 -9 -19
-14 -23 -11 -10 10 6 28 24 28 15 0 15 -1 -1 -17z m-189 -17 c2 -3 -3 -8 -12
-12 -11 -4 -16 -19 -16 -50 0 -24 5 -44 10 -44 6 0 10 -7 10 -15 0 -12 -15
-14 -79 -12 -80 2 -108 11 -77 23 19 7 23 90 4 96 -6 2 -8 10 -4 16 7 12 152
10 164 -2z m-451 -34 c5 -37 -15 -41 -32 -7 -8 17 -10 13 -13 -24 -2 -33 1
-47 13 -53 24 -14 10 -25 -35 -26 -39 -2 -52 9 -27 25 8 5 10 23 6 53 l-5 45
-12 -28 c-14 -32 -32 -27 -32 9 0 30 22 39 87 39 45 0 47 -1 50 -33z m583 13
c-12 -15 -30 -12 -30 5 0 8 31 19 39 13 2 -1 -2 -9 -9 -18z m256 16 c14 -1 24
-10 28 -23 6 -25 -13 -52 -21 -30 -7 19 -23 3 -23 -24 0 -13 -4 -24 -10 -24
-5 0 -10 5 -10 10 0 6 -4 10 -10 10 -5 0 -10 -7 -10 -16 0 -11 8 -14 28 -12
15 2 27 9 27 16 0 28 20 14 23 -16 l3 -33 -66 3 c-67 3 -89 13 -64 28 16 10
16 74 0 93 -16 20 -3 27 43 23 23 -2 51 -4 62 -5z m-201 -11 c-3 -5 -12 -10
-18 -10 -7 0 -6 4 3 10 19 12 23 12 15 0z m-802 -59 c-7 -11 -8 -23 -1 -34 6
-11 5 -17 -1 -17 -14 0 -25 63 -15 92 l7 23 10 -23 c8 -17 8 -29 0 -41z m697
29 c0 -12 -28 -25 -36 -17 -9 9 6 27 22 27 8 0 14 -5 14 -10z m-60 -30 c0 -5
-7 -10 -15 -10 -8 0 -15 5 -15 10 0 6 7 10 15 10 8 0 15 -4 15 -10z m-435 -50
c14 -28 36 -62 48 -76 12 -14 22 -31 23 -37 0 -7 2 -17 2 -23 1 -7 18 -19 37
-28 19 -9 35 -24 35 -32 0 -26 50 -63 96 -70 47 -7 57 -18 23 -27 -27 -7 -159
50 -159 69 0 7 -22 36 -49 63 -35 37 -53 66 -66 108 -10 32 -24 65 -32 74 -14
16 -12 19 14 28 2 1 14 -22 28 -49z m-151 -35 c9 -14 14 -25 11 -25 -6 0 -45
38 -45 45 0 14 20 2 34 -20z m-264 5 c8 -5 12 -11 9 -14 -3 -3 -14 1 -25 9
-21 16 -8 20 16 5z m352 -25 c0 -5 -5 -11 -11 -13 -6 -2 -11 4 -11 13 0 9 5
15 11 13 6 -2 11 -8 11 -13z m38 -50 c0 -12 -29 -3 -34 10 -4 13 -2 14 14 5
11 -6 20 -13 20 -15z m468 -17 c14 -14 16 -28 2 -28 -5 0 -14 9 -20 20 -12 22
-1 27 18 8z m-1475 -12 c4 -9 14 -12 25 -9 26 7 67 -44 51 -63 -15 -19 -63
-18 -79 1 -7 8 -19 15 -27 15 -11 0 -8 6 8 19 l24 20 -22 -6 c-16 -4 -23 -1
-23 9 0 29 33 40 43 14z m1150 2 c15 -7 27 -16 27 -20 0 -11 -2 -10 -38 8 -49
24 -39 35 11 12z m-863 -22 c0 -2 3 -11 6 -19 8 -22 -32 -42 -52 -26 -19 16
-18 37 4 42 24 7 42 8 42 3z m750 -34 c0 -9 15 -28 33 -43 19 -17 26 -28 17
-28 -21 0 -42 19 -62 58 -22 41 -23 58 -3 41 8 -7 15 -19 15 -28z m485 18 c3
-5 3 -15 -1 -21 -6 -11 -23 6 -24 24 0 10 18 9 25 -3z m-1355 -4 c0 -11 -19
-15 -25 -6 -3 5 1 10 9 10 9 0 16 -2 16 -4z m-15 -56 c27 -30 5 -49 -29 -26
-26 17 -31 27 -19 39 12 12 30 7 48 -13z m1385 -15 c0 -15 -18 -30 -27 -22 -2
3 -2 15 2 26 7 23 25 19 25 -4z"/>
<path d="M4300 415 c0 -8 9 -15 19 -15 10 0 21 7 25 15 4 11 -1 15 -19 15 -16
0 -25 -6 -25 -15z"/>
<path d="M4300 356 c0 -8 4 -17 9 -20 15 -10 40 5 34 20 -7 18 -43 18 -43 0z"/>
<path d="M4745 409 c-9 -14 4 -27 13 -13 4 6 14 14 22 17 10 4 8 6 -7 6 -12 1
-25 -4 -28 -10z"/>
<path d="M4040 2579 c-69 -14 -107 -19 -208 -26 -62 -4 -95 -10 -99 -19 -2 -7
14 -39 36 -71 40 -57 47 -82 65 -233 17 -145 31 -230 38 -230 4 0 8 5 8 10 0
6 5 10 11 10 5 0 7 -4 4 -10 -8 -13 11 -13 36 0 13 8 19 7 19 0 0 -8 6 -8 20
0 11 6 20 7 20 3 0 -4 16 -8 36 -7 25 1 43 9 61 28 17 19 33 26 52 25 14 -2
32 0 39 5 7 4 16 5 19 2 4 -3 13 3 20 14 8 11 19 18 24 15 5 -4 9 6 10 22 0
24 1 25 9 8 16 -40 23 13 9 75 -10 44 -18 60 -30 60 -16 0 -41 -22 -36 -31 1
-3 -5 3 -14 13 -10 10 -24 15 -37 11 -18 -4 -21 -1 -19 23 1 17 -3 28 -10 27
-17 -4 -21 173 -4 190 13 13 81 18 81 7 0 -6 -4 -10 -10 -10 -5 0 -10 -4 -10
-10 0 -16 70 -12 76 5 4 8 12 15 20 15 8 0 11 -6 8 -15 -8 -20 5 -19 44 5 26
16 37 18 53 9 29 -15 18 -35 -18 -31 -24 2 -32 -2 -36 -18 -3 -13 -13 -20 -30
-20 -14 0 -29 -4 -32 -10 -9 -15 -23 -12 -43 8 -13 13 -29 17 -55 14 -32 -4
-37 -8 -37 -31 0 -51 68 -121 117 -121 12 0 25 -5 28 -10 4 -6 9 -8 13 -6 4 2
8 -32 9 -76 2 -72 0 -83 -22 -112 -31 -41 -31 -47 0 -74 21 -18 25 -31 25 -75
0 -29 5 -58 12 -65 9 -9 8 -12 -5 -12 -19 0 -23 -15 -7 -25 11 -7 8 -94 -4
-113 -4 -7 2 -25 14 -43 12 -16 20 -33 16 -36 -3 -3 4 -19 15 -35 24 -33 18
-49 -9 -25 -10 10 -22 14 -25 10 -7 -7 -10 7 -8 42 0 14 -1 16 -6 5 -3 -8 -10
-18 -15 -21 -10 -6 35 -56 72 -80 47 -30 236 -3 272 38 17 20 38 77 38 102 0
9 -14 32 -31 51 -23 27 -27 29 -18 10 11 -23 11 -24 -5 -11 -9 8 -15 20 -12
27 3 7 -3 36 -13 64 -16 45 -17 60 -6 115 12 68 11 133 -5 179 -6 16 -10 38
-10 50 0 11 -11 50 -24 86 -14 36 -36 104 -50 151 -35 118 -43 126 -151 150
-49 11 -99 23 -110 26 -39 10 -140 12 -185 2z m50 -148 c0 -5 -6 -14 -14 -20
-12 -10 -13 -8 -9 8 5 21 23 30 23 12z"/>
<path d="M3636 2545 c-3 -8 -3 -22 1 -30 3 -9 6 -67 7 -130 0 -62 4 -117 9
-121 12 -12 8 -24 -7 -18 -23 9 -33 -117 -12 -147 18 -27 22 -18 4 10 -9 15
-9 23 1 35 25 30 68 16 55 -18 -8 -21 -21 -20 -27 2 -4 15 -5 15 -6 0 0 -9 3
-19 8 -22 16 -11 -1 -46 -25 -52 -24 -6 -24 -7 -7 -35 15 -26 22 -29 48 -23
40 9 108 9 123 0 22 -14 24 22 7 151 -31 243 -38 265 -123 371 -37 45 -47 50
-56 27z"/>
<path d="M4814 2537 c3 -10 6 -25 6 -32 0 -7 26 -53 58 -101 64 -98 75 -120
96 -209 13 -55 81 -318 126 -490 l18 -70 1 52 c2 109 -79 417 -156 593 -42 97
-171 319 -149 257z"/>
<path d="M1221 2503 c-15 -12 -20 -24 -16 -36 4 -9 11 -14 16 -11 5 3 9 0 9
-5 0 -6 -4 -11 -10 -11 -11 0 -14 -100 -4 -150 4 -17 14 -34 23 -38 9 -3 23
-14 31 -24 8 -10 26 -19 40 -20 22 -3 25 0 22 27 -1 17 -2 46 -2 65 0 47 -21
160 -29 160 -4 0 -7 12 -6 28 0 22 -5 28 -26 30 -14 2 -36 -5 -48 -15z"/>
<path d="M710 2359 c-25 -11 -61 -36 -81 -55 -19 -19 -58 -47 -86 -62 -60 -32
-168 -99 -318 -197 -134 -88 -166 -105 -202 -106 l-28 -1 28 -8 c32 -10 56
-36 57 -62 0 -10 10 -22 22 -29 18 -9 20 -9 15 4 -7 19 16 29 47 21 14 -3 27
1 35 10 8 9 24 16 37 16 13 0 29 9 36 20 7 11 17 20 22 20 5 0 20 9 32 21 l22
21 11 -21 c7 -12 19 -21 29 -21 15 1 15 2 1 10 -24 14 -23 82 1 113 12 15 26
27 31 27 16 0 10 -25 -11 -43 -27 -22 -26 -62 2 -81 34 -24 57 -20 68 12 24
65 33 74 64 68 16 -3 34 -2 41 4 24 20 101 28 136 13 44 -18 33 -24 -29 -14
-29 4 -55 5 -57 1 -3 -4 11 -10 30 -13 19 -3 42 -13 51 -21 23 -24 54 -20 54
5 0 15 5 19 15 15 11 -4 15 2 15 24 0 16 5 52 11 81 9 40 8 53 -1 59 -9 5 -9
9 -1 14 18 11 13 44 -10 59 l-21 15 21 7 c23 7 27 20 11 30 -8 5 -8 11 0 20
17 20 1 45 -29 44 -14 0 -46 -9 -71 -20z m-398 -321 c-8 -8 -9 -4 -5 13 4 13
8 18 11 10 2 -7 -1 -18 -6 -23z m-72 -22 c0 -3 -4 -8 -10 -11 -5 -3 -10 -1
-10 4 0 6 5 11 10 11 6 0 10 -2 10 -4z"/>
<path d="M2167 2323 c-4 -3 -7 -12 -7 -20 0 -14 21 -14 32 2 13 17 -10 34 -25
18z"/>
<path d="M4550 2290 c0 -5 5 -10 11 -10 5 0 7 5 4 10 -3 6 -8 10 -11 10 -2 0
-4 -4 -4 -10z"/>
<path d="M2161 2254 c0 -11 3 -14 6 -6 3 7 2 16 -1 19 -3 4 -6 -2 -5 -13z"/>
<path d="M2135 2170 c-4 -6 -3 -16 3 -22 6 -6 12 -6 17 2 4 6 3 16 -3 22 -6 6
-12 6 -17 -2z"/>
<path d="M1244 2142 c-13 -13 -13 -89 1 -131 6 -18 5 -22 -4 -16 -10 5 -11 2
-7 -13 4 -11 2 -23 -4 -27 -16 -10 -12 -25 8 -25 16 -1 16 -1 0 -11 -23 -13
-21 -62 2 -55 89 29 190 73 190 83 0 7 -5 13 -11 13 -6 0 -8 7 -5 15 4 10 -2
19 -17 25 -12 5 -16 9 -9 9 15 1 16 31 1 31 -6 0 -8 9 -4 20 4 13 1 22 -9 26
-9 3 -13 11 -9 17 3 5 -2 16 -12 24 -13 8 -14 13 -5 13 7 0 10 3 6 7 -12 12
-99 9 -112 -5z m66 -147 c0 -3 -9 -5 -20 -5 -11 0 -20 7 -20 15 0 13 4 14 20
5 11 -6 20 -13 20 -15z"/>
<path d="M1840 2130 c0 -5 5 -10 11 -10 5 0 7 5 4 10 -3 6 -8 10 -11 10 -2 0
-4 -4 -4 -10z"/>
<path d="M1800 2118 c0 -8 6 -21 14 -28 8 -6 12 -18 9 -26 -3 -8 3 -17 13 -21
15 -6 14 -8 -7 -16 -23 -9 -23 -9 -4 -17 11 -5 67 -8 125 -8 58 0 97 2 88 5
-25 6 -23 23 3 23 14 0 18 4 12 13 -4 6 -6 23 -4 37 2 20 0 23 -10 13 -18 -18
-46 -16 -53 2 -3 9 -18 15 -38 15 -30 0 -31 -1 -12 -15 10 -8 14 -15 9 -15
-21 0 -35 23 -24 37 9 10 6 13 -13 13 -38 0 -39 -9 -5 -41 30 -27 31 -28 10
-29 -12 0 -27 9 -33 19 -6 12 -17 17 -29 14 -12 -3 -24 3 -35 18 -12 17 -16
19 -16 7z m160 -72 c0 -2 3 -11 6 -20 9 -23 -13 -20 -26 4 -9 16 -8 20 5 20 8
0 15 -2 15 -4z m44 -22 c5 -14 4 -15 -9 -4 -17 14 -19 20 -6 20 5 0 12 -7 15
-16z"/>
<path d="M1990 2120 c0 -5 5 -10 11 -10 5 0 7 5 4 10 -3 6 -8 10 -11 10 -2 0
-4 -4 -4 -10z"/>
<path d="M4934 2093 c-4 -16 -17 -44 -28 -63 -12 -19 -33 -57 -46 -85 -14 -27
-47 -83 -73 -123 -26 -40 -51 -81 -54 -90 -4 -9 -17 -33 -29 -52 -12 -19 -27
-59 -33 -89 -12 -59 -66 -137 -114 -166 -40 -24 -96 -74 -108 -97 -6 -10 -14
-44 -19 -74 -9 -55 -8 -57 33 -124 54 -87 84 -122 134 -153 55 -35 85 -73 135
-174 24 -49 61 -108 83 -131 55 -60 132 -115 151 -108 8 3 13 2 9 -3 -5 -8 47
-41 65 -41 4 0 17 24 29 53 49 121 51 138 51 561 0 358 -2 401 -17 418 -9 10
-19 37 -23 61 -4 23 -22 96 -40 162 -18 66 -38 145 -45 175 -16 71 -45 170
-51 170 -2 0 -7 -12 -10 -27z m-168 -400 c-11 -11 -19 6 -11 24 8 17 8 17 12
0 3 -10 2 -21 -1 -24z m126 -300 c0 -21 0 -45 -1 -53 -1 -8 -3 -50 -6 -92 -3
-61 -9 -82 -25 -98 -11 -11 -20 -24 -20 -30 0 -5 -4 -10 -10 -10 -17 0 -11 46
8 63 10 10 21 15 23 13 4 -4 12 113 13 197 1 56 15 64 18 10z m-42 -154 c0 -6
-4 -7 -10 -4 -5 3 -10 11 -10 16 0 6 5 7 10 4 6 -3 10 -11 10 -16z m6 -176
c-4 -4 -11 -1 -16 7 -16 25 -11 35 7 17 9 -9 13 -20 9 -24z m-40 -10 c-7 -7
-26 7 -26 19 0 6 6 6 15 -2 9 -7 13 -15 11 -17z m79 -23 c11 -5 32 -14 48 -20
27 -10 52 -53 43 -74 -3 -6 -8 -1 -11 11 -4 12 -16 25 -26 28 -11 4 -17 11
-14 16 4 5 0 9 -7 9 -7 0 -24 3 -37 7 -17 4 -22 3 -17 -6 6 -8 1 -8 -18 1 -15
6 -26 20 -26 30 0 20 18 19 65 -2z m-45 -60 c0 -5 -7 -7 -15 -4 -8 4 -15 8
-15 10 0 2 7 4 15 4 8 0 15 -4 15 -10z m171 -77 c22 -38 31 -81 19 -88 -5 -3
-10 2 -10 12 0 11 -4 23 -9 29 -12 14 -31 74 -23 74 4 0 15 -12 23 -27z m19
-159 c-18 -21 -24 -10 -9 18 8 14 14 18 17 10 2 -7 -2 -19 -8 -28z m-39 -71
c-9 -16 -10 -15 -11 8 0 14 3 29 8 33 12 12 14 -22 3 -41z"/>
<path d="M4840 1026 c0 -2 7 -6 15 -10 8 -3 15 -1 15 4 0 6 -7 10 -15 10 -8 0
-15 -2 -15 -4z"/>
<path d="M2078 2080 c12 -5 22 -16 22 -25 0 -16 27 -20 48 -6 19 12 -4 27 -53
35 -30 4 -35 3 -17 -4z"/>
<path d="M2580 2032 c0 -28 20 -41 59 -36 46 5 48 10 14 27 -55 28 -73 30 -73
9z"/>
<path d="M94 2026 c-11 -8 -37 -13 -57 -12 -30 3 -37 0 -37 -15 0 -12 7 -16
23 -15 26 3 83 31 92 46 8 14 3 13 -21 -4z"/>
<path d="M597 2033 c-4 -3 -7 -11 -7 -17 0 -6 5 -5 12 2 6 6 9 14 7 17 -3 3
-9 2 -12 -2z"/>
<path d="M520 2004 c0 -8 5 -12 10 -9 6 3 10 10 10 16 0 5 -4 9 -10 9 -5 0
-10 -7 -10 -16z"/>
<path d="M638 2003 c-11 -3 -15 -11 -12 -21 4 -12 3 -13 -3 -4 -11 15 -67 6
-84 -14 -6 -8 -9 -21 -5 -29 3 -8 1 -15 -4 -15 -6 0 -10 -6 -10 -14 0 -19 -80
-30 -116 -15 -16 6 -39 16 -51 22 -18 8 -27 6 -45 -9 -13 -10 -27 -25 -31 -32
-5 -7 -13 -10 -18 -6 -12 7 -59 -22 -59 -37 0 -6 9 -8 22 -3 20 6 21 5 9 -10
-18 -21 -49 -21 -53 1 -2 13 -8 8 -20 -17 -9 -19 -13 -37 -9 -40 5 -3 11 -15
15 -27 4 -13 12 -23 17 -23 5 0 1 -15 -9 -34 -22 -41 -78 -106 -90 -106 -5 0
-15 -7 -22 -15 -7 -8 -17 -12 -23 -8 -5 3 -7 1 -3 -5 3 -6 2 -13 -4 -17 -5 -3
-10 -11 -10 -16 0 -6 5 -7 10 -4 19 12 10 -7 -12 -26 l-23 -18 22 -1 c51 0
110 35 193 115 98 95 164 145 193 145 11 0 68 -22 126 -49 105 -48 256 -91
323 -91 75 0 137 42 82 56 -14 4 -28 4 -31 0 -4 -3 4 -6 17 -6 13 0 21 -3 17
-6 -3 -4 -27 0 -52 7 -33 10 -44 17 -40 29 3 9 -4 26 -15 38 -12 12 -16 22
-10 22 14 0 13 33 -2 48 -7 7 -8 12 -2 12 5 0 9 24 9 53 0 44 -3 52 -18 49 -9
-2 -25 2 -35 8 -14 9 -12 10 11 5 21 -4 28 -2 25 7 -3 7 -13 13 -23 13 -10 0
-21 10 -26 23 -7 18 -16 22 -51 23 -24 0 -37 3 -31 6 9 3 10 10 3 24 -11 19
-13 20 -42 12z m-8 -57 c0 -2 -8 -10 -17 -17 -16 -13 -17 -12 -4 4 13 16 21
21 21 13z m-355 -146 c-3 -5 -10 -10 -16 -10 -5 0 -9 5 -9 10 0 6 7 10 16 10
8 0 12 -4 9 -10z m220 -50 c-3 -5 -12 -10 -18 -10 -7 0 -6 4 3 10 19 12 23 12
15 0z"/>
<path d="M5080 1990 c0 -5 5 -10 10 -10 6 0 10 5 10 10 0 6 -4 10 -10 10 -5 0
-10 -4 -10 -10z"/>
<path d="M801 1974 c0 -11 3 -14 6 -6 3 7 2 16 -1 19 -3 4 -6 -2 -5 -13z"/>
<path d="M1830 1941 c0 -11 7 -26 15 -34 8 -8 11 -18 7 -22 -4 -4 7 -4 25 -1
18 4 41 2 53 -4 12 -7 38 -13 58 -15 21 -2 31 -1 25 1 -10 4 -9 9 3 21 8 9 14
27 12 42 -3 26 -4 26 -100 29 -92 3 -98 1 -98 -17z"/>
<path d="M13 1893 c-10 -3 -13 -44 -13 -156 0 -150 1 -151 17 -117 10 19 23
39 30 43 8 5 11 13 7 18 -9 15 16 39 41 39 26 0 42 29 23 42 -7 4 -29 11 -48
14 -38 7 -74 23 -52 24 8 0 10 8 6 25 -5 19 -2 25 9 25 20 0 29 14 21 34 -6
16 -18 19 -41 9z"/>
<path d="M1375 1872 c-105 -34 -183 -87 -162 -109 5 -4 12 -1 17 7 6 8 10 10
10 4 0 -6 -7 -17 -15 -24 -24 -20 -10 -23 25 -5 24 12 29 19 21 29 -6 8 -8 21
-5 31 6 16 8 15 18 -4 l12 -21 34 25 c39 28 57 31 79 11 11 -9 23 -11 39 -5
22 8 31 29 12 29 -5 0 -9 10 -7 22 3 28 -15 31 -78 10z"/>
<path d="M1920 1840 c8 -5 31 -9 50 -9 32 1 33 2 10 9 -14 4 -36 8 -50 9 -20
1 -22 -1 -10 -9z"/>
<path d="M1375 1741 c-16 -4 -48 -20 -69 -34 -21 -15 -43 -27 -47 -27 -5 0 -9
-5 -9 -10 0 -6 17 0 38 13 20 13 58 31 85 41 64 24 65 32 2 17z"/>
<path d="M1980 1742 c0 -14 -72 -23 -87 -10 -7 6 -16 8 -19 5 -3 -3 8 -13 26
-22 23 -12 35 -13 44 -5 18 14 49 1 42 -17 -4 -9 -1 -13 6 -11 17 6 17 60 1
66 -7 2 -13 -1 -13 -6z"/>
<path d="M4670 1731 c0 -17 18 -21 24 -6 3 9 0 15 -9 15 -8 0 -15 -4 -15 -9z"/>
<path d="M2973 1678 c-29 -32 -37 -63 -19 -77 8 -7 20 -10 26 -6 5 3 14 -5 20
-19 5 -14 13 -26 18 -26 4 0 9 -11 10 -25 1 -14 8 -39 17 -54 8 -16 17 -48 20
-72 7 -53 23 -116 38 -147 9 -18 6 -37 -13 -91 -21 -62 -22 -72 -10 -114 15
-57 7 -120 -22 -167 -27 -43 -68 -123 -68 -131 0 -4 10 -9 23 -13 18 -5 19 -8
7 -16 -8 -5 -19 -5 -24 0 -5 5 -26 -8 -49 -30 -39 -38 -76 -115 -82 -170 -1
-14 -3 -30 -4 -36 -1 -13 -47 -35 -55 -27 -12 12 -6 33 15 54 14 14 18 24 11
31 -6 6 -22 -9 -46 -41 -33 -44 -35 -52 -24 -70 7 -12 16 -21 20 -21 17 0 7
-17 -15 -27 -12 -6 -36 -30 -52 -54 -16 -24 -40 -56 -53 -70 -15 -17 -20 -29
-13 -33 6 -4 11 -14 11 -23 0 -13 -3 -13 -15 -3 -13 11 -19 7 -17 -11 1 -4
-23 -19 -52 -33 -30 -15 -70 -39 -90 -55 -21 -17 -51 -33 -69 -36 -18 -4 -36
-10 -42 -14 -5 -4 -30 -13 -55 -21 -77 -23 -71 -32 20 -28 64 4 106 12 170 37
91 34 132 64 262 193 72 70 91 98 69 98 -5 0 -11 8 -14 18 -2 9 -8 25 -12 35
-7 17 -6 17 24 0 28 -16 29 -19 14 -31 -15 -11 -15 -12 4 -12 21 0 47 23 37
33 -3 3 4 10 15 17 12 6 21 15 21 20 0 6 9 19 19 29 11 11 26 42 34 69 8 27
27 75 42 108 15 32 27 69 27 82 0 12 4 22 8 22 5 0 11 15 15 33 11 56 45 149
87 241 l41 89 -16 66 c-9 36 -19 116 -21 176 -5 101 -8 115 -39 175 -19 36
-39 65 -45 65 -5 0 -14 4 -19 9 -5 5 -3 6 5 2 6 -4 12 -4 12 1 -1 14 -65 116
-76 120 -6 2 -20 -7 -31 -19z m-58 -1218 c-3 -5 -11 -10 -16 -10 -6 0 -7 5 -4
10 3 6 11 10 16 10 6 0 7 -4 4 -10z"/>
<path d="M391 1669 c-39 -15 -112 -79 -105 -91 4 -6 3 -8 -3 -5 -5 3 -34 -19
-64 -50 -51 -53 -134 -103 -171 -103 -47 0 -48 -3 -48 -166 l0 -153 34 14 c18
8 36 12 39 8 3 -3 47 11 97 31 50 21 96 35 103 33 7 -2 25 2 41 10 16 8 39 13
53 10 13 -2 26 0 29 4 3 5 11 9 19 9 7 0 29 15 48 33 57 53 64 56 124 63 32 4
74 15 93 25 19 9 65 20 102 23 37 3 80 12 96 20 16 8 38 13 49 10 17 -5 22 0
28 25 7 31 59 85 94 96 11 3 23 16 27 28 4 12 20 40 37 62 l31 40 -37 -34
c-37 -35 -52 -34 -20 1 18 20 17 23 -14 32 -17 6 -34 -4 -77 -43 -65 -59 -109
-69 -213 -51 -114 20 -174 38 -270 85 -50 25 -93 45 -95 44 -2 0 -14 -5 -27
-10z"/>
<path d="M1413 1659 c-37 -11 -51 -27 -30 -35 8 -3 37 6 64 20 39 20 43 25 23
25 -14 -1 -39 -5 -57 -10z"/>
<path d="M1883 1649 c-18 -5 -33 -13 -33 -18 0 -4 -73 -6 -162 -4 -134 4 -170
1 -205 -12 -35 -14 -42 -20 -32 -31 9 -11 6 -16 -15 -24 -14 -5 -38 -15 -53
-22 -16 -7 -32 -12 -38 -13 -5 0 -16 -4 -22 -8 -7 -5 -17 -5 -23 -2 -18 11
-10 35 15 47 29 13 32 23 8 32 -13 5 -34 -11 -80 -60 -65 -71 -91 -80 -53 -20
24 39 11 50 -15 14 -48 -69 -105 -164 -105 -176 0 -7 -4 -10 -10 -7 -5 3 -10
-1 -10 -10 0 -9 -13 -24 -30 -33 -27 -15 -46 -40 -37 -48 1 -2 27 19 57 46 30
28 61 50 69 50 17 0 116 61 155 95 16 14 38 25 49 25 11 0 26 8 33 18 9 11 16
13 21 6 9 -13 139 5 188 25 86 36 216 17 472 -70 81 -27 190 -61 241 -74 103
-27 155 -49 255 -113 111 -69 155 -164 144 -306 -6 -73 -41 -183 -77 -240 -18
-30 -205 -205 -258 -241 -54 -39 -153 -80 -237 -100 -5 -1 -17 -5 -25 -8 -8
-3 -35 -11 -60 -17 -128 -32 -243 -84 -297 -136 -6 -6 -26 -17 -45 -23 -18 -7
-76 -32 -128 -56 -52 -23 -120 -51 -150 -60 -30 -10 -60 -22 -66 -26 -6 -5
-37 -17 -70 -28 l-59 -19 348 -1 347 -1 16 33 c9 19 32 42 52 53 20 11 41 32
48 51 8 17 20 36 28 40 8 4 32 24 53 44 59 55 98 64 168 41 l58 -20 57 29 c31
15 72 42 91 60 19 18 54 45 78 60 51 33 109 94 122 128 7 16 5 30 -3 45 -19
30 -8 128 18 163 34 46 84 75 119 68 29 -6 29 -5 10 10 -19 16 -19 16 12 13
23 -2 39 4 57 21 14 14 26 29 26 34 0 6 -11 -2 -25 -17 -13 -14 -29 -26 -35
-26 -20 0 -9 37 20 65 17 16 30 36 31 44 0 9 9 30 20 46 10 17 23 39 28 50 9
22 -3 68 -24 85 -12 10 -12 5 -4 -25 15 -55 -2 -62 -42 -18 -28 31 -35 49 -41
98 -15 138 -41 216 -85 257 -10 10 -27 27 -38 38 -11 12 -53 38 -92 57 -40 20
-73 39 -73 43 0 14 -50 61 -59 55 -6 -3 -35 -2 -65 3 -30 5 -54 6 -52 3 2 -3
-76 -6 -174 -6 -98 0 -174 3 -168 6 5 3 -8 9 -29 13 -21 3 -47 8 -58 10 -11 3
-35 0 -52 -5z m150 -66 c-7 -2 -21 -2 -30 0 -10 3 -4 5 12 5 17 0 24 -2 18 -5z
m562 -81 c-3 -3 -11 0 -18 7 -9 10 -8 11 6 5 10 -3 15 -9 12 -12z m-1335 -12
c-8 -5 -22 -10 -30 -10 -13 0 -13 1 0 10 8 5 22 10 30 10 13 0 13 -1 0 -10z
m-10 -34 c0 -2 -7 -7 -16 -10 -8 -3 -12 -2 -9 4 6 10 25 14 25 6z m1450 -621
c7 -9 10 -18 7 -21 -9 -9 -48 16 -42 27 9 13 21 11 35 -6z m70 -21 c0 -2 -9
-4 -20 -4 -11 0 -20 4 -20 9 0 5 9 7 20 4 11 -3 20 -7 20 -9z m-217 -198 c6
-15 -1 -26 -15 -26 -4 0 -8 9 -8 20 0 23 15 27 23 6z m11 -107 c-2 -5 -15 -3
-27 4 -12 6 -23 13 -25 14 -2 0 4 10 14 21 17 21 17 21 31 -5 7 -14 10 -29 7
-34z m-79 42 c3 -5 1 -12 -4 -15 -12 -8 -41 3 -41 15 0 12 37 12 45 0z m42
-98 c-3 -10 -5 -2 -5 17 0 19 2 27 5 18 2 -10 2 -26 0 -35z m97 38 c3 -4 3
-11 0 -14 -8 -8 -34 3 -34 14 0 11 27 12 34 0z m-579 -218 c-4 -16 -8 -35 -9
-42 -4 -23 -26 -25 -26 -2 0 11 -4 23 -10 26 -17 10 -11 25 13 35 35 14 40 12
32 -17z m-79 -28 c4 -8 0 -23 -7 -32 -12 -14 -12 -15 -1 -9 10 6 13 3 10 -10
-6 -31 -42 -24 -46 9 -5 43 31 77 44 42z m-186 -46 c0 -5 -7 -9 -15 -9 -15 0
-20 12 -9 23 8 8 24 -1 24 -14z m106 6 c8 -21 -15 -75 -32 -75 -17 0 -37 47
-30 67 9 21 24 15 35 -14 11 -28 11 -28 5 5 -6 33 11 46 22 17z m-90 -73 c5
-25 3 -32 -8 -32 -16 0 -33 55 -22 72 9 15 23 -3 30 -40z m-92 23 c3 -8 3 -22
0 -30 -4 -10 3 -18 22 -26 26 -9 27 -12 12 -20 -12 -7 -25 -6 -38 1 -13 7 -20
7 -20 0 0 -5 6 -10 13 -10 12 -1 -21 -30 -34 -30 -3 0 -9 17 -12 38 -3 20 -8
45 -12 54 -5 13 -1 20 16 27 34 14 46 13 53 -4z m-157 -61 c-3 -3 -12 -4 -19
-1 -8 3 -5 6 6 6 11 1 17 -2 13 -5z m77 -10 c3 -8 2 -12 -4 -9 -6 3 -10 10
-10 16 0 14 7 11 14 -7z"/>
<path d="M1665 130 c3 -5 8 -10 11 -10 2 0 4 5 4 10 0 6 -5 10 -11 10 -5 0 -7
-4 -4 -10z"/>
<path d="M3820 1620 c0 -5 9 -10 21 -10 11 0 17 5 14 10 -3 6 -13 10 -21 10
-8 0 -14 -4 -14 -10z"/>
<path d="M2639 1603 c10 -18 91 -56 91 -43 0 6 -5 10 -10 10 -6 0 -15 10 -21
23 -7 15 -19 22 -39 23 -23 1 -28 -2 -21 -13z"/>
<path d="M4270 1527 c0 -13 14 -44 32 -68 17 -23 39 -68 48 -99 9 -30 24 -68
33 -85 15 -28 16 -29 17 -7 1 55 80 161 136 182 15 6 22 15 18 22 -4 6 -3 8 3
5 6 -4 19 5 28 20 15 23 16 25 1 20 -8 -3 -53 -11 -99 -17 -95 -13 -152 -3
-182 30 -24 26 -35 25 -35 -3z"/>
<path d="M1565 1475 c-22 -7 -78 -18 -125 -25 -92 -13 -148 -35 -194 -73 -39
-34 -18 -43 46 -20 39 14 52 15 55 6 6 -18 23 -16 23 2 0 8 10 17 23 19 12 3
42 9 67 15 25 5 54 11 65 14 11 2 14 2 7 0 -7 -3 -11 -10 -9 -16 4 -14 105
-10 123 4 13 11 72 1 81 -14 4 -6 -5 -8 -24 -4 -36 7 -73 -1 -73 -17 0 -6 21
-24 45 -41 42 -28 45 -33 45 -73 0 -36 -4 -45 -21 -49 -18 -5 -20 -11 -16 -40
5 -27 3 -32 -6 -24 -9 7 -19 2 -36 -20 -29 -37 -49 -38 -24 -1 10 15 29 48 41
74 25 52 27 47 -41 119 -26 28 -31 29 -63 19 -19 -6 -40 -10 -47 -7 -6 2 -28
-6 -47 -18 -40 -25 -100 -40 -100 -25 0 6 -7 10 -15 10 -8 0 -15 6 -15 14 0
33 -25 28 -92 -18 -16 -10 -28 -26 -28 -35 0 -12 -10 -17 -32 -19 -18 -2 -33
-4 -35 -6 -2 -1 -5 -38 -8 -82 -3 -43 -8 -98 -11 -121 -6 -40 -5 -42 22 -49
16 -3 38 -17 49 -30 16 -18 38 -26 98 -36 92 -14 103 -32 15 -23 -73 8 -118
22 -135 43 -12 14 -13 14 -13 -1 0 -25 -15 -21 -48 13 -30 30 -49 81 -37 100
3 5 0 19 -8 31 -15 20 -8 85 10 98 9 7 14 41 5 41 -3 0 -14 -7 -24 -17 -10 -9
-18 -11 -18 -5 0 6 5 14 10 17 6 3 10 12 10 18 0 19 -48 -46 -55 -74 -13 -59
71 -217 138 -258 33 -20 200 -55 372 -77 27 -3 59 -10 71 -14 22 -9 24 -7 66
100 6 14 14 33 19 42 5 10 9 44 9 77 0 49 8 76 43 153 24 51 56 108 71 125 28
33 33 81 8 75 -8 -1 -10 2 -7 8 14 22 -123 105 -157 95 -18 -5 -20 -4 -8 4 13
9 12 11 -5 10 -11 0 -38 -6 -60 -14z m-185 -59 c0 -2 -7 -7 -16 -10 -8 -3 -12
-2 -9 4 6 10 25 14 25 6z m-50 -16 c0 -5 -5 -10 -11 -10 -5 0 -7 5 -4 10 3 6
8 10 11 10 2 0 4 -4 4 -10z m440 -40 c0 -5 10 -10 22 -10 15 0 19 -3 12 -10
-7 -7 -19 -6 -37 2 -29 14 -36 28 -12 28 8 0 15 -4 15 -10z"/>
<path d="M1708 1478 c6 -6 25 -11 42 -11 17 0 26 -4 19 -8 -8 -5 -5 -10 8 -18
11 -5 23 -8 27 -6 3 3 4 2 1 -2 -3 -3 3 -16 14 -27 22 -24 38 -86 22 -86 -5 0
-12 -8 -15 -17 -3 -10 -17 -31 -31 -47 -32 -37 -32 -48 1 -36 14 6 60 10 102
10 85 0 125 8 116 21 -3 5 -2 9 3 8 24 -4 36 5 64 51 17 28 35 50 40 50 5 0 9
4 9 8 0 9 -126 52 -152 52 -9 0 -19 4 -22 9 -3 5 -22 12 -41 15 -20 4 -63 16
-97 27 -70 22 -129 26 -110 7z"/>
<path d="M1158 1328 c-35 -16 -48 -27 -48 -42 0 -16 2 -18 9 -7 6 9 11 10 15
2 11 -17 36 -13 29 4 -3 10 6 25 23 40 35 30 33 30 -28 3z"/>
<path d="M2140 1344 c-9 -3 -27 -24 -40 -49 -36 -66 -80 -86 -187 -87 -107 0
-148 -17 -182 -78 -13 -24 -25 -64 -27 -94 -6 -77 -11 -100 -32 -148 -41 -93
-43 -98 -29 -103 20 -7 129 -27 186 -34 30 -4 79 -3 109 2 37 6 66 6 92 -2 48
-14 71 -15 50 -1 -10 7 0 8 32 4 40 -6 48 -4 60 15 7 11 20 21 30 21 9 0 19 9
23 19 3 11 12 22 20 25 10 3 15 20 15 46 0 36 -2 40 -25 40 -14 0 -25 5 -25
12 0 9 -3 9 -12 0 -21 -21 -29 -13 -12 13 16 24 15 25 -24 60 -28 26 -38 42
-35 56 3 10 9 16 14 13 5 -3 9 -1 9 5 0 5 -4 13 -10 16 -5 3 -10 1 -10 -4 0
-16 -28 -13 -37 2 -4 8 -17 19 -28 25 -20 11 -20 11 0 12 13 0 16 3 9 10 -7 7
-19 7 -36 1 -14 -5 -46 -9 -73 -9 -26 0 -51 -5 -55 -11 -3 -6 -30 -12 -58 -12
-29 -1 -52 -6 -52 -11 0 -5 -4 -6 -10 -3 -32 20 21 62 54 43 12 -7 25 -7 40 0
41 20 92 34 137 37 39 4 50 0 69 -20 13 -14 33 -25 46 -25 15 0 27 -10 38 -34
9 -19 16 -38 16 -44 0 -5 6 -15 14 -22 8 -6 12 -18 10 -25 -7 -17 13 -55 29
-55 23 0 47 -40 47 -78 0 -32 -30 -98 -41 -91 -12 7 -46 -14 -54 -33 -6 -12
-21 -25 -35 -28 -24 -6 -24 -6 8 -19 18 -7 32 -17 32 -22 0 -16 55 -10 96 10
44 21 140 42 160 34 18 -7 84 16 104 36 43 42 76 177 67 270 -7 61 -36 128
-71 160 -89 83 -343 177 -416 155z m51 -76 c15 -31 70 -88 84 -88 5 0 16 -9
23 -20 16 -27 8 -25 -36 7 -51 37 -82 70 -82 86 0 7 -5 18 -12 25 -9 9 -9 12
0 12 6 0 16 -10 23 -22z m-94 -34 c-3 -3 -12 -4 -19 -1 -8 3 -5 6 6 6 11 1 17
-2 13 -5z m41 -69 c-3 -3 -9 2 -12 12 -6 14 -5 15 5 6 7 -7 10 -15 7 -18z
m-265 -2 c-7 -2 -21 -2 -30 0 -10 3 -4 5 12 5 17 0 24 -2 18 -5z m97 -53 c0
-5 -5 -10 -11 -10 -5 0 -7 5 -4 10 3 6 8 10 11 10 2 0 4 -4 4 -10z m384 -26
c9 -24 2 -26 -12 -4 -7 11 -8 20 -3 20 5 0 12 -7 15 -16z m30 -66 c9 -17 16
-39 16 -48 0 -21 -26 -45 -34 -32 -3 6 1 13 10 16 14 5 14 10 -3 39 -11 18
-18 38 -15 45 6 18 9 15 26 -20z m-475 -79 c14 -42 16 -38 -19 -51 -26 -8 -28
-12 -16 -22 8 -6 16 -31 18 -56 3 -44 2 -45 -28 -48 -24 -2 -33 1 -36 16 -3
11 -1 27 4 36 5 9 6 21 2 27 -3 6 0 15 7 20 11 7 11 11 2 17 -7 4 -15 22 -19
39 -5 27 -3 32 22 41 45 16 51 14 63 -19z m621 -169 c0 -5 -7 -10 -16 -10 -8
0 -12 5 -9 10 3 6 10 10 16 10 5 0 9 -4 9 -10z m-250 -59 c0 -5 -7 -12 -16
-15 -24 -9 -28 -7 -14 9 14 17 30 20 30 6z"/>
<path d="M1863 933 c-15 -5 -17 -23 -4 -23 5 0 11 7 15 15 3 8 4 15 3 14 -1 0
-8 -3 -14 -6z"/>
<path d="M830 1330 c0 -12 8 -12 35 0 18 8 17 9 -7 9 -16 1 -28 -3 -28 -9z"/>
<path d="M1435 1330 c3 -5 13 -10 21 -10 8 0 12 5 9 10 -3 6 -13 10 -21 10 -8
0 -12 -4 -9 -10z"/>
<path d="M1085 1250 c-3 -5 -1 -10 4 -10 6 0 11 5 11 10 0 6 -2 10 -4 10 -3 0
-8 -4 -11 -10z"/>
<path d="M938 1234 c-38 -20 -36 -28 2 -9 17 9 30 18 30 20 0 7 -1 6 -32 -11z"/>
<path d="M748 1192 c-22 -7 -47 -10 -56 -6 -28 12 -76 7 -109 -10 -18 -9 -40
-16 -51 -16 -22 0 -82 -56 -82 -78 0 -35 -106 -94 -195 -106 -27 -4 -66 -11
-85 -16 -169 -42 -170 -42 -170 -61 0 -10 2 -19 4 -19 2 0 35 13 73 29 67 27
93 34 188 46 84 12 98 19 166 79 98 89 152 114 274 126 55 5 118 16 139 24
l40 14 -49 4 c-26 2 -66 -3 -87 -10z"/>
<path d="M933 1177 c-46 -23 -57 -38 -20 -30 15 4 19 2 12 -4 -5 -6 -28 -13
-50 -17 -39 -6 -39 -6 -15 9 25 14 25 15 -10 8 -61 -10 -66 -19 -17 -31 24 -7
52 -15 62 -19 11 -4 16 -2 12 3 -3 6 4 11 16 11 21 2 21 1 3 -12 -18 -13 -17
-15 15 -42 18 -15 37 -27 42 -25 5 1 6 -2 3 -7 -3 -5 2 -15 11 -22 14 -12 16
-12 11 1 -33 89 -41 131 -31 165 13 41 12 41 -44 12z"/>
<path d="M320 1150 c-8 -5 -27 -10 -41 -10 -29 0 -68 -25 -56 -36 9 -10 147
34 147 47 0 12 -31 11 -50 -1z"/>
<path d="M147 1102 c-15 -9 -27 -20 -27 -25 0 -10 52 3 68 18 22 20 -10 26
-41 7z"/>
<path d="M635 1110 c-66 -16 -160 -76 -191 -121 -28 -42 -64 -57 -174 -74 -80
-12 -242 -61 -269 -82 -10 -7 8 -12 93 -27 48 -8 93 -20 100 -25 6 -5 46 -16
89 -25 108 -22 158 -50 187 -105 10 -19 14 -21 22 -10 6 10 7 7 3 -9 -5 -18 2
-38 30 -78 31 -45 50 -60 109 -88 75 -35 169 -62 184 -52 6 3 43 13 83 21 103
21 175 51 239 99 30 23 59 44 65 48 63 46 75 61 75 92 0 53 -82 152 -115 140
-7 -3 -16 -1 -20 5 -3 7 0 8 9 5 29 -11 16 4 -35 41 -28 20 -54 34 -57 31 -3
-3 1 -6 8 -6 7 0 11 -3 7 -6 -3 -4 -22 9 -40 29 -19 19 -50 38 -68 42 -19 4
-43 14 -54 22 -19 13 -18 14 10 7 17 -4 36 -11 43 -17 21 -17 13 1 -12 25 -72
70 -86 79 -156 99 -87 24 -123 29 -165 19z m112 -45 c13 -9 30 -31 39 -51 13
-27 21 -33 36 -28 13 4 27 -3 44 -21 13 -14 24 -30 24 -34 0 -5 16 -11 35 -14
19 -3 47 -15 62 -26 14 -12 39 -21 54 -21 16 0 39 -6 52 -12 12 -7 23 -14 25
-15 2 0 5 -20 6 -43 4 -45 24 -69 76 -92 16 -6 20 -12 12 -15 -7 -3 -21 2 -30
10 -9 8 -26 17 -37 19 -11 2 -26 16 -33 31 -10 20 -20 27 -42 27 -16 0 -32 5
-35 10 -4 6 8 10 29 10 25 0 36 5 36 14 0 24 -32 35 -102 37 -10 0 -17 5 -15
12 1 6 -21 14 -52 19 -29 4 -64 17 -78 28 -14 11 -34 20 -44 20 -10 0 -26 9
-36 19 -10 11 -39 22 -65 26 -40 6 -47 4 -51 -12 -4 -15 -5 -14 -6 5 -1 29
-48 53 -62 31 -5 -8 -9 -24 -9 -35 0 -12 -9 -28 -20 -35 -11 -8 -21 -26 -22
-40 -2 -23 -6 -25 -43 -24 -22 1 -43 0 -46 -2 -4 -1 -2 -25 3 -54 7 -36 6 -55
-3 -65 -9 -11 -9 -17 1 -29 7 -8 8 -15 2 -15 -23 0 -31 26 -17 53 14 27 11 57
-5 57 -4 0 -18 -8 -31 -19 -22 -17 -22 -19 -6 -35 25 -26 21 -29 -13 -9 -37
21 -39 49 -4 57 18 5 24 11 20 23 -4 8 -2 21 2 27 15 18 10 46 -7 47 -9 0 0 5
19 11 20 5 59 33 90 63 59 56 133 100 156 91 8 -3 14 -1 14 4 0 16 53 12 77
-5z m103 -45 c0 -5 -4 -10 -10 -10 -5 0 -10 5 -10 10 0 6 5 10 10 10 6 0 10
-4 10 -10z m133 -87 c-7 -2 -19 -2 -25 0 -7 3 -2 5 12 5 14 0 19 -2 13 -5z
m-723 -113 c0 -5 -2 -10 -4 -10 -3 0 -8 5 -11 10 -3 6 -1 10 4 10 6 0 11 -4
11 -10z m261 -132 c4 -16 3 -28 -2 -28 -5 0 -9 9 -9 21 0 16 -4 19 -20 14 -14
-5 -20 -2 -20 10 0 28 43 14 51 -17z"/>
<path d="M555 980 c-3 -5 -1 -10 4 -10 6 0 11 5 11 10 0 6 -2 10 -4 10 -3 0
-8 -4 -11 -10z"/>
<path d="M815 950 c3 -5 13 -10 21 -10 8 0 12 5 9 10 -3 6 -13 10 -21 10 -8 0
-12 -4 -9 -10z"/>
<path d="M1097 1100 c-3 -11 -1 -20 4 -20 5 0 9 9 9 20 0 11 -2 20 -4 20 -2 0
-6 -9 -9 -20z"/>
<path d="M30 1081 c-8 -6 -18 -7 -22 -5 -4 3 -8 0 -8 -5 0 -16 43 -13 66 4 19
14 19 14 -1 15 -11 0 -27 -4 -35 -9z"/>
<path d="M1235 813 c60 -58 75 -87 75 -138 0 -40 2 -45 18 -36 9 5 37 29 62
53 25 23 61 56 80 71 35 29 35 29 8 24 -15 -2 -26 -1 -23 3 2 3 -49 17 -113
30 -64 12 -124 25 -132 27 -8 3 3 -13 25 -34z"/>
<path d="M1 758 c1 -38 16 -94 18 -65 1 22 22 22 52 -2 13 -10 45 -21 71 -25
41 -6 48 -5 58 14 18 34 57 44 97 25 19 -9 40 -14 48 -12 19 8 72 -43 89 -85
20 -50 7 -48 -22 3 -23 39 -54 59 -93 59 -31 0 -17 -23 19 -32 35 -9 38 -15
18 -40 -18 -25 -28 -22 -22 5 3 12 3 17 0 10 -4 -8 -12 -8 -32 3 -25 13 -29
12 -55 -16 -15 -16 -33 -27 -41 -24 -7 3 -16 -2 -19 -10 -10 -24 -63 -21 -70
4 -3 13 -11 18 -20 14 -8 -3 -17 2 -20 10 -4 9 -13 16 -22 16 -8 0 -15 5 -15
12 0 6 -3 9 -6 5 -9 -9 68 -167 116 -237 42 -61 194 -220 211 -220 5 0 9 5 9
11 0 5 5 7 11 3 8 -5 8 -9 -1 -14 -7 -5 -4 -12 12 -22 23 -15 23 -15 20 26 -3
22 -1 38 2 35 6 -6 13 -42 15 -76 1 -7 13 -19 28 -27 25 -13 28 -12 38 7 12
24 35 35 35 16 0 -6 11 -22 26 -35 22 -21 35 -24 98 -24 72 0 74 1 86 30 7 16
10 40 7 52 -8 28 18 58 50 58 14 0 23 6 23 15 0 8 4 15 9 15 5 0 14 14 20 30
10 31 41 42 41 15 0 -8 -4 -15 -9 -15 -14 0 -20 -38 -7 -44 6 -2 4 -5 -5 -5
-9 -1 -39 -14 -67 -29 -38 -21 -49 -31 -41 -39 8 -8 8 -25 -1 -62 l-12 -50
-71 -3 -72 -3 71 -18 c49 -13 97 -17 159 -15 l89 3 7 30 c4 17 10 64 13 105 3
41 8 99 12 128 6 51 3 58 -29 53 -5 -1 -6 3 -2 8 3 6 -14 15 -37 22 -143 38
-270 84 -315 114 -28 19 -54 30 -57 24 -2 -5 -3 -4 -2 3 3 14 -67 142 -93 172
-25 28 -80 53 -151 67 -36 6 -76 18 -90 24 -14 7 -48 16 -75 20 -28 3 -62 9
-77 11 -26 5 -28 3 -27 -28z m404 -168 c3 -5 1 -10 -4 -10 -6 0 -11 5 -11 10
0 6 2 10 4 10 3 0 8 -4 11 -10z m392 -236 c-3 -3 -12 -4 -19 -1 -8 3 -5 6 6 6
11 1 17 -2 13 -5z m-60 -10 c-3 -3 -12 -4 -19 -1 -8 3 -5 6 6 6 11 1 17 -2 13
-5z m173 -203 c-8 -5 -33 -11 -55 -14 -35 -5 -37 -5 -18 6 12 7 37 13 55 14
22 1 28 -1 18 -6z"/>
<path d="M1499 755 c-24 -17 -64 -52 -88 -78 -24 -25 -62 -53 -84 -62 -46 -19
-135 -75 -189 -120 -31 -26 -101 -54 -227 -91 -11 -3 -11 -7 -1 -19 7 -8 18
-15 24 -15 16 0 52 -39 60 -65 3 -11 0 -49 -7 -85 -12 -56 -12 -68 2 -92 9
-15 22 -26 28 -23 7 2 12 1 12 -3 -3 -21 4 -31 32 -42 40 -17 178 2 269 38 36
13 89 33 119 43 29 10 81 32 115 48 33 16 77 36 96 45 19 9 60 34 90 56 37 27
88 50 155 71 55 18 104 34 110 37 5 3 22 7 37 9 15 1 58 13 95 25 51 17 67 27
65 40 -1 9 2 19 7 22 9 6 1 54 -22 117 -12 34 -14 36 -32 23 -10 -8 -15 -14
-9 -14 5 0 3 -4 -5 -9 -12 -8 -12 -12 -2 -25 11 -13 9 -20 -16 -43 -16 -16
-37 -27 -46 -25 -9 2 -33 -4 -53 -14 -20 -10 -59 -18 -88 -19 -33 -1 -63 -9
-86 -23 -30 -19 -44 -21 -95 -16 -33 3 -77 12 -97 20 -21 7 -38 10 -38 5 0 -5
-11 -12 -25 -15 -19 -5 -34 -25 -65 -90 -38 -81 -40 -84 -75 -86 -67 -3 -75
-4 -75 -17 0 -7 -8 -13 -17 -13 -9 0 -36 -9 -60 -21 -24 -12 -61 -23 -83 -26
-22 -3 -37 -9 -35 -13 3 -4 -35 -7 -84 -6 -83 1 -87 2 -63 15 35 18 33 16 27
34 -4 8 -15 17 -26 20 -10 3 -19 12 -19 21 0 22 1 21 50 -24 42 -39 73 -50 85
-30 3 6 19 10 35 10 16 0 42 11 58 25 17 14 38 25 49 25 10 0 24 5 30 11 5 5
37 13 69 16 32 3 65 11 73 17 7 5 24 35 38 64 26 57 109 147 119 130 3 -5 14
-8 24 -5 10 3 30 -3 45 -13 30 -20 99 -17 125 5 8 7 34 16 57 20 24 4 46 11
49 17 4 5 21 7 39 4 24 -5 49 0 88 18 46 20 55 28 59 54 3 21 -1 35 -14 46
-10 9 -18 22 -18 30 0 8 -22 21 -51 30 -42 14 -59 15 -109 5 -59 -11 -118 -3
-331 46 -56 12 -56 12 -100 -20z m272 -41 c4 -2 5 -14 4 -26 -1 -13 -3 -36 -4
-51 -1 -26 -4 -28 -38 -25 l-38 3 4 50 c1 28 5 53 8 58 4 6 47 0 64 -9z m119
-34 c0 -5 -7 -10 -15 -10 -8 0 -15 5 -15 10 0 6 7 10 15 10 8 0 15 -4 15 -10z
m205 -190 c-3 -5 -10 -10 -16 -10 -5 0 -9 5 -9 10 0 6 7 10 16 10 8 0 12 -4 9
-10z m-111 -58 c6 -11 -61 -35 -74 -27 -6 3 -23 -3 -39 -15 -19 -13 -32 -17
-36 -10 -9 15 76 51 91 39 8 -7 17 -5 26 5 15 17 25 20 32 8z m101 -2 c-3 -5
-14 -10 -23 -9 -14 0 -13 2 3 9 27 11 27 11 20 0z m-350 -76 c-35 -27 -75 -45
-75 -34 0 6 19 19 43 30 52 23 58 24 32 4z m-285 -94 c-8 -5 -22 -9 -30 -9
-10 0 -8 3 5 9 27 12 43 12 25 0z m-393 -36 c-3 -3 -12 -4 -19 -1 -8 3 -5 6 6
6 11 1 17 -2 13 -5z m293 -18 c0 -2 -7 -6 -15 -10 -8 -3 -15 -1 -15 4 0 6 7
10 15 10 8 0 15 -2 15 -4z m0 -66 c0 -5 -8 -10 -17 -10 -15 0 -16 2 -3 10 19
12 20 12 20 0z m-50 -20 c-8 -5 -22 -9 -30 -9 -10 0 -8 3 5 9 27 12 43 12 25
0z m-153 -36 c-3 -3 -12 -4 -19 -1 -8 3 -5 6 6 6 11 1 17 -2 13 -5z"/>
<path d="M2115 730 c3 -5 8 -10 11 -10 2 0 4 5 4 10 0 6 -5 10 -11 10 -5 0 -7
-4 -4 -10z"/>
<path d="M2526 711 c-3 -4 -35 -9 -71 -10 -47 -1 -88 -11 -141 -31 -41 -17
-81 -30 -89 -30 -19 0 -19 2 6 -54 14 -32 18 -58 15 -82 -5 -27 -3 -33 6 -28
46 27 109 73 143 105 22 21 65 60 95 88 30 28 52 51 48 51 -4 0 -9 -4 -12 -9z
m-211 -161 c3 -5 1 -10 -4 -10 -6 0 -11 5 -11 10 0 6 2 10 4 10 3 0 8 -4 11
-10z m-25 -24 c0 -3 -4 -8 -10 -11 -5 -3 -10 -1 -10 4 0 6 5 11 10 11 6 0 10
-2 10 -4z"/>
<path d="M220 680 c-10 -6 -11 -13 -5 -19 6 -6 16 -7 25 -1 10 6 11 13 5 19
-6 6 -16 7 -25 1z"/>
<path d="M260 669 c0 -24 23 -21 28 4 2 10 -3 17 -12 17 -10 0 -16 -9 -16 -21z"/>
<path d="M2149 671 c8 -5 10 -14 6 -22 -6 -11 -5 -11 5 -2 14 12 6 33 -13 33
-8 0 -7 -3 2 -9z"/>
<path d="M21 654 c0 -11 3 -14 6 -6 3 7 2 16 -1 19 -3 4 -6 -2 -5 -13z"/>
<path d="M2707 664 c-8 -8 1 -24 14 -24 5 0 9 7 9 15 0 15 -12 20 -23 9z"/>
<path d="M76 651 c-4 -7 -5 -15 -2 -18 9 -9 19 4 14 18 -4 11 -6 11 -12 0z"/>
<path d="M189 633 c-1 -5 -1 -12 0 -16 1 -5 -7 -6 -18 -2 -21 6 -39 -10 -18
-17 16 -6 77 19 77 32 0 11 -39 14 -41 3z"/>
<path d="M2410 240 c-9 -6 -10 -10 -3 -10 6 0 15 5 18 10 8 12 4 12 -15 0z"/>
<path d="M500 92 c0 -10 70 -45 77 -38 2 2 -4 7 -15 10 -11 4 -23 13 -26 21
-6 16 -36 21 -36 7z"/>
<path d="M967 58 c-2 -13 -8 -31 -12 -41 -7 -16 0 -17 69 -15 72 2 135 18 73
18 -32 0 -88 26 -100 46 -12 21 -24 17 -30 -8z m59 -35 c-10 -11 -36 -12 -36
-2 0 5 10 9 22 9 12 0 18 -3 14 -7z"/>
<path d="M2825 60 c-3 -5 -1 -10 4 -10 6 0 11 5 11 10 0 6 -2 10 -4 10 -3 0
-8 -4 -11 -10z"/>
<path d="M2880 15 c-10 -13 -9 -15 8 -15 15 0 20 5 16 15 -8 19 -9 19 -24 0z"/>
</g>
</svg>
